<svg width="400" height="400" viewBox="0 0 400 400" fill="none" xmlns="http://www.w3.org/2000/svg">
<path d="M268.667 69C242.646 68.9876 217.213 76.7246 195.621 91.2212C194.135 92.2356 183.861 99.5612 183.41 99.9181C166.343 112.729 154.884 114.945 139.191 111.019C138.231 110.775 133.734 109.235 132.323 108.69C117.666 103.181 101.898 101.265 86.3454 103.102C70.7925 104.94 55.9087 110.478 42.9449 119.25C29.9811 128.022 19.3161 139.773 11.8463 153.514C4.37653 167.256 0.32018 182.586 0.0181941 198.218C-0.283792 213.849 3.17741 229.324 10.1109 243.343C17.0444 257.362 27.2476 269.514 39.8629 278.779C52.4783 288.044 67.1371 294.15 82.6075 296.585C98.0779 299.02 113.908 297.712 128.767 292.771C152.174 285.784 164.875 287.7 179.571 298.049C182.506 300.116 189.581 304.643 191.049 305.713C207.775 317.966 227.172 326.087 247.649 329.41C268.126 332.734 289.101 331.166 308.854 324.834C328.607 318.502 346.575 307.588 361.286 292.985C375.997 278.382 387.032 260.506 393.486 240.824C399.94 221.141 401.629 200.212 398.415 179.752C395.201 159.292 387.176 139.883 374.996 123.118C362.817 106.352 346.831 92.7061 328.348 83.2992C309.866 73.8923 289.413 68.992 268.667 69Z" fill="#007858"/>
<path d="M221.306 220.322C217.568 223.994 212.695 226.294 207.481 226.846C202.266 227.399 197.018 226.172 192.592 223.365L183.88 237.171C191.428 241.933 200.365 244.011 209.244 243.071C218.123 242.13 226.424 238.224 232.803 231.987L221.306 220.322ZM205.613 164.083C198.417 163.969 191.326 165.812 185.099 169.413C178.872 173.014 173.744 178.238 170.264 184.526C166.784 190.815 165.083 197.929 165.344 205.108C165.604 212.288 167.816 219.261 171.743 225.281L243.584 194.626C241.563 186.043 236.73 178.378 229.852 172.846C222.975 167.313 214.444 164.23 205.613 164.083ZM181.81 206.122C181.267 201.161 182.335 196.157 184.858 191.848C187.381 187.54 191.224 184.155 195.821 182.193C200.418 180.231 205.524 179.796 210.387 180.953C215.251 182.109 219.613 184.795 222.83 188.615L181.81 206.122ZM266.145 146.258V222.689L279.43 228.193L273.164 243.22L259.992 237.772C257.34 236.639 255.087 234.743 253.52 232.325C251.769 229.51 250.886 226.245 250.979 222.933V146.258H266.145ZM150.462 146.258V222.689L163.633 228.193L157.367 243.22L144.196 237.772C141.633 236.631 139.456 234.771 137.93 232.419C136.173 229.606 135.283 226.34 135.371 223.027V146.258H150.462Z" fill="white"/>
<path d="M331.514 182.661C334.274 183.99 336.745 185.849 338.786 188.131C340.827 190.414 342.397 193.076 343.407 195.964C344.417 198.853 344.847 201.912 344.672 204.967C344.498 208.021 343.722 211.011 342.39 213.767L357.085 220.81C361.063 212.529 362.033 203.124 359.83 194.207C357.626 185.29 352.386 177.415 345.006 171.93C337.626 166.446 328.566 163.692 319.377 164.142C310.187 164.592 301.44 168.217 294.633 174.396L305.622 186.436C309.064 183.293 313.372 181.253 317.987 180.58C322.603 179.907 327.315 180.632 331.514 182.661Z" fill="#C7D540"/>
<path d="M311.286 224.68C305.708 221.998 301.424 217.217 299.374 211.385C297.325 205.553 297.677 199.147 300.354 193.574L285.658 186.511C281.72 194.782 280.775 204.16 282.984 213.048C285.194 221.936 290.421 229.785 297.776 235.258C305.131 240.731 314.16 243.49 323.323 243.065C332.487 242.639 341.22 239.057 348.035 232.926L337.046 220.904C333.613 224.016 329.33 226.036 324.742 226.709C320.154 227.381 315.47 226.675 311.286 224.68ZM120.356 225.788V203.661C120.356 195.859 118.038 188.233 113.696 181.746C109.354 175.259 103.183 170.203 95.9626 167.218C88.7423 164.232 80.7973 163.451 73.1322 164.973C65.4671 166.495 58.4263 170.252 52.9001 175.768C47.3739 181.285 43.6105 188.314 42.0858 195.965C40.5611 203.617 41.3437 211.548 44.3344 218.756C47.3252 225.964 52.3899 232.125 58.888 236.459C65.3861 240.793 73.0259 243.107 80.8411 243.107C86.9672 243.108 93.0095 241.686 98.4909 238.956L92.131 224.116C88.5701 226.082 84.5568 227.085 80.4882 227.027C76.4196 226.969 72.4367 225.852 68.9336 223.785C65.4304 221.719 62.5284 218.775 60.5147 215.246C58.501 211.716 57.4454 207.723 57.4522 203.661C57.431 199.845 58.3553 196.083 60.143 192.71C61.7165 189.766 63.9022 187.193 66.5536 185.162C69.205 183.13 72.2607 181.688 75.516 180.933C77.2425 180.524 79.0104 180.316 80.7846 180.313C86.9945 180.308 92.9522 182.764 97.3485 187.142C101.745 191.52 104.22 197.462 104.23 203.661V225.6C104.137 228.912 105.02 232.178 106.77 234.992C108.348 237.4 110.599 239.294 113.243 240.44L120.657 243.37L126.941 228.343L120.356 225.788Z" fill="white"/>
</svg>
