<svg width="400" height="400" viewBox="0 0 400 400" fill="none" xmlns="http://www.w3.org/2000/svg">
<path fill-rule="evenodd" clip-rule="evenodd" d="M0 1.03577H399.963V399.882H0V1.03577Z" fill="white"/>
<path fill-rule="evenodd" clip-rule="evenodd" d="M400 259.406C400 269.397 393.673 274.053 382.35 274.053H360.709V264.062H382.35C384.348 264.062 386.014 263.732 386.683 263.068C387.346 262.399 388.013 261.4 388.013 260.07C388.013 258.735 387.349 257.405 386.683 256.741C386.014 256.072 384.684 255.742 382.685 255.742C372.366 255.406 359.377 256.072 359.377 241.423C359.377 234.76 363.705 227.434 375.359 227.434H397.668V237.425H377.022C375.028 237.425 373.694 237.425 372.694 238.089C371.695 239.088 371.031 240.088 371.031 241.753C371.031 243.419 372.03 244.418 373.36 245.087C374.695 245.418 376.028 245.751 377.693 245.751H383.685C390.011 245.751 394.009 247.081 396.674 249.415C398.668 251.744 400 254.745 400 259.406ZM353.048 249.415C350.383 247.081 346.385 245.751 340.059 245.751H334.067C332.404 245.751 331.069 245.415 329.739 245.087C328.404 244.418 327.41 243.419 327.41 241.753C327.41 240.088 327.74 239.088 329.073 238.089C330.072 237.425 331.402 237.425 333.401 237.425H354.047V227.434H331.738C319.748 227.434 315.751 234.76 315.751 241.423C315.751 256.07 328.74 255.406 339.064 255.742C341.058 255.742 342.393 256.072 343.057 256.741C343.72 257.405 344.391 258.735 344.391 260.07C344.391 261.4 343.723 262.399 343.057 263.068C342.057 263.732 340.727 264.062 338.728 264.062H317.083V274.053H338.728C350.047 274.053 356.376 269.395 356.376 259.406C356.376 254.745 355.046 251.744 353.048 249.415ZM310.423 264.4H284.122V255.075H309.759V245.755H284.122V237.094H310.423V227.439H273.131V274.056H310.423V264.4ZM261.142 229.771C257.477 227.772 253.149 227.436 247.489 227.436H221.851V274.053H233.169V257.072H245.159C249.152 257.072 251.486 257.407 253.152 259.07C255.15 261.4 255.15 265.397 255.15 268.395V274.053H266.136V265.062C266.136 260.734 265.805 258.735 264.473 256.405C263.473 255.071 261.479 253.407 258.815 252.408C261.808 251.414 266.807 247.416 266.807 240.088C266.804 234.763 264.806 231.765 261.142 229.771ZM197.874 227.436H162.242L147.923 242.755L134.27 227.436H89.3166V274.053H133.607L147.926 258.735L161.579 274.053H183.224V258.407H197.21C206.865 258.407 216.526 255.742 216.526 242.755C216.523 230.101 206.532 227.436 197.874 227.436ZM252.15 246.752C250.487 247.416 248.821 247.416 246.822 247.416L233.169 247.752V237.092H246.822C248.821 237.092 250.82 237.092 252.15 238.091C253.485 238.76 254.479 240.09 254.479 242.089C254.479 244.087 253.485 245.753 252.15 246.752ZM197.874 249.082H183.221V237.092H197.874C201.871 237.092 204.534 238.76 204.534 242.755C204.534 246.752 201.869 249.082 197.874 249.082ZM154.916 250.745L172.231 232.433V270.061L154.916 250.745ZM127.944 264.4H100.305V255.075H124.946V245.755H100.305V237.094H128.277L140.597 250.747L127.944 264.4ZM369.03 193.804H353.048L332.069 158.839V193.804H309.429L305.096 183.48H281.787L277.459 193.804H264.47C259.143 193.804 252.15 192.471 248.157 188.474C244.493 184.479 242.494 179.152 242.494 170.826C242.494 163.833 243.494 157.506 248.486 152.512C251.814 148.848 257.81 147.185 265.467 147.185H276.122V157.176H265.467C261.475 157.176 259.14 157.842 256.811 159.841C254.812 161.839 253.813 165.501 253.813 170.495C253.813 175.49 254.812 179.154 256.811 181.486C258.474 183.149 261.475 183.815 264.468 183.815H269.465L285.447 147.187H302.098L320.745 191.141V147.185H338.062L357.709 179.485V147.185H369.027V193.804H369.03ZM236.834 147.185H225.515V193.804H236.834V147.185ZM213.19 149.183C209.526 147.185 205.533 147.185 199.872 147.185H174.23V193.804H185.218V176.82H197.205C201.202 176.82 203.867 177.153 205.531 178.819C207.529 181.15 207.194 185.148 207.194 187.81V193.804H218.512V184.479C218.512 180.484 218.182 178.485 216.519 176.154C215.519 174.821 213.52 173.156 211.191 172.159C214.184 170.826 219.183 167.164 219.183 159.838C219.186 154.511 216.852 151.513 213.19 149.183ZM166.237 184.148H140.264V174.824H165.904V165.168H140.264V156.843H166.237V147.187H128.943V193.806H166.237V184.148ZM120.617 147.185H102.303L88.6504 178.819L73.9982 147.185H56.0172V191.139L37.0368 147.185H20.3883L0.408588 193.804H12.3959L16.724 183.48H40.0324L44.3605 193.804H67.0051V157.176L83.3206 193.804H92.9761L109.294 157.176V193.804H120.615L120.617 147.185ZM301.103 173.491L293.442 155.177L285.785 173.491H301.103ZM204.534 166.167C202.87 167.167 201.205 167.167 198.873 167.167H185.218V156.845H198.871C200.869 156.845 203.196 156.845 204.531 157.511C205.861 158.511 206.53 159.843 206.53 161.839C206.53 163.836 205.864 165.499 204.534 166.167ZM20.719 173.491L28.3782 155.177L36.0375 173.491H20.719ZM400 1H0.0730591V169.285L13.726 137.862H42.695L46.6923 145.521V137.862H80.658L88.3173 154.511L95.6434 137.862H203.867C208.859 137.862 213.187 138.862 216.521 141.524V137.862H246.156V141.524C251.148 138.859 257.475 137.862 264.803 137.862H307.758L311.756 145.521V137.862H343.39L348.053 145.521V137.862H379.019V203.129H347.72L341.729 193.14V203.129H302.766L298.438 192.474H288.778L284.45 203.129H264.14C256.147 203.129 250.151 201.13 246.159 199.134V203.129H197.874V188.143C197.874 186.145 197.541 185.812 196.208 185.812H194.545V203.126H101.304V194.801L97.9752 203.126H78.3287L74.9999 195.134V203.126H37.3699L33.375 192.471H23.717L19.3889 203.126H0.0730591V399.928H400V280.38C395.672 282.379 387.013 283.378 381.02 283.378H352.048V279.381C348.72 282.048 342.723 283.378 337.065 283.378H245.823V268.395C245.823 266.397 245.492 266.397 243.824 266.397H242.161V283.378H212.19V265.73C207.199 268.06 201.536 268.06 196.541 268.06H193.21V283.378H156.582L147.926 273.387L138.27 283.378H79.3256V218.114H139.265L147.923 228.1L157.248 218.114H197.541C202.199 218.114 209.861 218.778 213.19 222.107V218.114H249.152C252.816 218.114 259.811 218.778 264.47 222.107V218.114H318.749V222.109C321.747 219.444 327.41 218.117 332.402 218.117H362.703V222.109C366.037 219.78 370.695 218.117 376.692 218.117H400V1Z" fill="#0077A6"/>
</svg>
