<svg width="400" height="400" viewBox="0 0 400 400" fill="none" xmlns="http://www.w3.org/2000/svg">
<path fill-rule="evenodd" clip-rule="evenodd" d="M6 0H393.027V400H6V0Z" fill="white"/>
<path fill-rule="evenodd" clip-rule="evenodd" d="M128.787 15.9141C188.891 15.9141 238.064 65.9939 238.064 127.609C238.064 188.922 188.889 239.004 128.787 239.004C68.3834 239.004 19.2076 188.922 19.2076 127.609C19.2076 65.9939 68.3834 15.9141 128.787 15.9141Z" fill="#D0D1D3"/>
<path fill-rule="evenodd" clip-rule="evenodd" d="M130.306 14.0923C68.6863 14.0923 18.9071 64.7801 18.9071 127.609C18.9071 190.136 68.3835 240.826 130.306 240.826V241.128H269.026C331.249 241.128 380.425 190.438 380.425 127.609C380.425 64.7801 330.036 14.0923 267.812 14.0923C268.725 14.3951 131.217 14.0923 130.306 14.0923ZM130.306 18.6464C189.802 18.6464 237.154 67.2097 237.154 127.609C237.154 188.011 189.8 236.577 130.306 236.577C71.1159 236.577 23.1561 188.011 23.1561 127.609C23.1561 67.2097 71.1159 18.6464 130.306 18.6464ZM149.124 202.277V52.9438C181.907 61.4419 205.885 91.1874 205.885 127.609C205.887 164.033 181.909 194.082 149.124 202.277ZM111.789 52.6409V202.578C78.7032 194.385 55.0261 164.336 55.0261 127.609C55.0261 91.1874 78.7032 60.8339 111.789 52.6409Z" fill="#234B8D"/>
<path fill-rule="evenodd" clip-rule="evenodd" d="M18.6021 308.813C21.0317 308.51 22.8533 307.599 23.4591 305.78C23.7619 304.561 24.067 303.348 24.6727 302.134L31.0485 278.459C31.6565 276.032 31.9571 274.515 32.5651 272.994V271.478C32.5651 269.961 31.3514 269.05 29.2269 269.05L27.4052 268.743L28.0132 267.226H41.9762C46.8332 267.226 51.0823 267.529 53.8148 268.44C57.4581 269.654 60.1883 271.778 62.01 274.816C63.8316 277.853 64.7424 281.192 64.7424 285.136C64.7424 291.208 62.6179 296.669 58.0638 301.528C53.8125 305.779 48.6549 308.507 42.2791 309.721C39.2438 310.329 35.9055 310.329 32.5651 310.329H18.2992L18.6021 308.813ZM31.6543 300.009L30.7434 303.958C30.4406 304.564 30.4406 304.869 30.4406 305.474C30.4406 306.688 31.0485 307.296 32.2622 307.296C32.8702 307.599 33.7788 307.599 34.9947 307.599C44.7087 307.599 51.3851 303.348 55.3313 294.551C56.8479 290.906 57.4558 287.567 57.4558 283.926C57.4558 279.675 56.2399 276.337 54.1154 273.909C51.6857 271.179 48.6526 269.966 44.4014 269.966C42.5797 269.966 41.6689 270.268 40.7581 270.571L40.1501 270.874C40.1501 271.181 39.8472 271.181 39.8472 271.482L38.3284 276.337L31.6543 300.009ZM80.222 303.958L79.6141 304.869C78.7032 305.779 78.0975 306.993 77.1867 307.902C75.365 310.026 73.5434 311.24 71.4189 311.24C68.9915 311.24 67.7755 309.723 68.0807 306.993C68.0807 305.78 68.3835 303.655 68.9915 301.223L73.2405 286.654C73.5456 286.049 73.5456 285.441 73.5456 284.835C73.5456 283.924 73.2405 283.314 72.0268 283.013H69.5972L70.2052 281.8L80.5249 279.98L74.1513 302.441L73.5434 305.172C73.2383 305.779 73.2383 306.385 73.2383 306.688C72.9354 307.296 73.5434 307.599 74.1491 307.599C74.7548 307.599 75.6679 307.296 76.5787 306.385C77.1867 305.474 77.7924 304.869 78.4004 303.958L79.0083 303.047L80.222 303.958ZM76.2759 269.963C76.2759 267.531 77.4895 266.015 79.6141 266.015C81.7386 266.015 82.6494 267.229 82.6494 269.656C82.6494 270.567 82.3466 271.478 81.7386 272.391C81.1306 272.996 80.2198 273.302 79.309 273.302C77.1867 273.304 76.2759 272.086 76.2759 269.963ZM86.5956 301.833L88.7201 294.244L90.5418 286.654C90.8446 285.748 90.8446 285.138 90.8446 284.835C90.8446 283.621 90.2367 283.013 89.3258 283.013H86.8984L87.2036 281.8L97.8261 279.98L94.1828 292.727L95.0937 291.211L96.9153 288.476C101.167 282.71 105.111 279.673 108.451 279.98C110.878 279.98 112.094 281.194 112.397 283.621V285.138L112.094 287.262L111.486 289.387L107.843 303.045L106.932 306.082V306.995C106.932 307.601 107.235 307.601 107.54 307.601C108.451 307.601 109.968 306.69 111.486 304.564L113.005 303.047L113.916 303.655L112.7 305.78C112.092 306.385 111.486 307.296 110.575 307.9C109.968 308.507 109.362 309.118 108.451 309.721C107.843 310.024 107.235 310.632 106.629 310.632C106.021 311.238 105.416 311.238 104.808 311.238C102.683 311.238 101.772 310.024 101.772 307.9V305.78C102.075 303.958 102.378 302.742 102.986 301.528L106.324 289.387L106.627 287.262C106.93 286.351 106.93 285.746 106.93 285.138V284.227C106.627 283.621 106.322 283.316 105.716 283.316C104.197 283.624 102.681 284.534 100.859 286.354L99.3427 288.175C97.8239 290.3 96.3073 292.427 95.0914 294.551C94.1806 296.068 93.5749 297.584 92.9669 298.798L91.7532 302.444L89.3236 310.336H84.1637L86.5956 301.833ZM123.628 299.406C123.325 300.317 123.325 301.225 123.325 302.136C123.325 302.744 123.325 303.35 123.628 303.958C123.628 304.564 124.236 305.474 124.841 306.082C125.752 306.993 127.271 307.599 129.093 307.599C130.609 307.599 131.52 307.599 132.736 306.993C133.647 306.686 134.558 306.082 136.074 305.172L137.593 303.958L138.504 303.35L139.415 304.261L137.898 305.782C136.987 306.387 136.076 306.995 135.166 307.902C132.13 310.026 129.095 311.24 126.362 311.24C124.844 311.24 123.327 310.937 122.416 310.334C119.076 308.813 117.254 306.082 117.254 301.833C117.254 296.671 119.379 291.816 123.327 287.265C127.576 282.41 132.13 279.982 136.985 279.982C140.931 279.982 142.753 281.499 142.753 284.837C142.753 288.478 140.628 291.516 136.074 294.244C133.342 296.065 129.701 297.281 124.844 297.885H123.933L123.628 299.406ZM126.968 295.458C132.128 293.941 135.466 290.906 137.288 286.351C137.593 285.746 137.593 284.835 137.593 284.227C137.593 282.71 136.985 281.8 135.466 281.8C133.342 281.8 130.914 283.924 128.487 287.565C127.271 289.387 126.362 290.903 125.754 292.117C125.449 293.028 125.146 294.242 124.539 296.065L126.968 295.458ZM147.608 303.047L150.643 292.427L152.162 286.657C152.465 286.051 152.465 285.443 152.465 284.837V283.926C152.196 283.631 151.868 283.396 151.501 283.239C151.134 283.082 150.737 283.006 150.338 283.016H147.91L148.518 281.802L158.84 279.982L155.805 291.516L157.322 289.088L159.751 285.443C162.484 281.802 164.608 279.982 166.733 279.982C168.857 279.982 170.071 281.196 170.071 283.316C170.071 284.534 169.768 285.441 169.16 286.051C168.552 286.657 167.644 286.962 167.036 286.962C165.82 286.962 165.214 286.654 164.606 286.051L163.998 284.837H163.392L162.784 285.14L161.266 286.657C160.052 288.478 158.533 290.302 157.016 293.032C156.409 294.246 155.803 295.767 154.892 297.584C154.284 299.709 153.373 301.533 152.767 303.657L150.643 310.336H145.786L147.608 303.047ZM171.285 300.92L171.588 302.134C171.588 303.045 171.89 303.956 172.195 304.561C173.106 307.9 174.928 309.421 177.963 309.118C179.177 309.118 180.391 308.81 181.302 307.9C181.909 306.993 182.517 305.779 182.517 304.258C182.517 303.653 182.517 303.045 182.212 302.134C181.604 301.223 180.999 300.009 180.391 298.796L177.355 294.244C176.445 293.03 175.837 291.816 175.534 290.906C174.948 289.78 174.636 288.533 174.623 287.265C174.623 286.354 174.926 285.443 175.231 284.534C175.534 283.623 176.142 283.013 176.747 282.41C177.334 281.551 178.188 280.911 179.177 280.588C180.391 279.982 181.302 279.982 182.515 279.982C183.729 279.982 184.64 279.982 185.853 280.285C187.372 280.588 188.283 280.891 188.889 280.891C189.494 280.891 190.105 280.588 190.405 280.285L190.71 279.982H191.621L190.105 289.088H188.889V287.567C188.281 283.926 186.156 281.802 183.121 281.802C180.996 281.802 179.783 283.016 179.783 285.443C179.783 286.964 180.391 288.781 181.907 291.213L184.943 295.46C185.853 296.673 186.461 297.584 186.764 298.497C187.372 299.711 187.675 300.925 187.675 302.138C187.675 304.873 186.461 306.998 184.64 308.817C182.818 310.338 180.388 311.244 177.658 311.244C176.747 311.244 175.534 311.244 174.623 310.942C172.801 310.336 171.588 310.336 171.285 310.336H170.677L170.374 310.639L169.766 311.244H168.55L170.066 300.624L171.285 300.92ZM251.422 301.223L249.901 303.045C245.046 308.51 239.884 311.238 233.815 311.238C228.956 311.238 224.709 309.418 221.371 306.08C219.85 304.559 218.939 302.742 218.334 300.918C217.334 298.62 216.816 296.142 216.813 293.636C216.813 290.901 217.421 288.171 218.334 285.136C220.153 279.978 223.491 275.729 228.048 272.083C232.6 268.442 237.757 266.623 243.222 266.318C245.654 266.625 248.687 266.926 252.025 267.839C252.936 267.839 253.546 268.142 254.15 268.142C254.463 268.147 254.772 268.065 255.041 267.904C255.309 267.743 255.528 267.51 255.671 267.231L255.974 266.625L257.49 266.928L254.76 279.98H253.243V278.762C252.936 277.548 252.936 276.642 252.635 275.428C252.333 274.21 251.725 273.304 250.814 272.391C248.994 270.266 246.563 269.353 242.921 269.353C238.67 269.353 235.029 271.175 231.691 274.818C228.792 278.018 226.708 281.871 225.618 286.049C224.712 289.086 224.101 292.117 224.404 294.852C224.101 298.19 225.012 301.223 227.139 303.655C228.958 306.385 231.691 307.599 235.332 307.599C239.884 307.599 244.438 305.474 248.994 300.92L249.901 300.009L251.422 301.223ZM265.38 273.304C265.688 272.393 265.988 271.482 265.988 270.872L265.685 270.266C265.378 269.658 264.775 269.355 263.561 269.355H261.739L262.042 268.142L272.667 266.32L262.65 303.35C262.042 304.871 262.042 306.085 262.042 306.688V306.995C262.042 307.601 262.349 307.601 262.953 307.601C263.26 307.601 264.167 307.298 265.38 306.085L266.901 304.564L268.115 303.047L268.723 302.441L269.937 303.047L269.026 304.564C268.115 305.474 267.505 306.385 266.599 307.298C264.474 310.029 262.347 311.242 260.223 311.242C259.312 311.242 258.401 310.939 257.488 310.336C256.882 309.728 256.577 308.815 256.577 307.904C256.577 307.298 256.577 306.387 256.885 305.784L258.098 301.228L265.38 273.304ZM289.663 300.62C287.844 303.35 286.329 305.474 284.506 307.298C282.078 310.029 279.646 311.242 277.219 311.242C276.308 311.242 275.399 310.939 274.791 310.029C274.174 309.14 273.855 308.077 273.881 306.995C273.881 306.085 273.881 305.174 274.184 303.958L275.094 300.92L278.74 286.654C279.043 286.049 279.043 285.441 279.043 284.835C279.043 283.621 278.74 283.013 277.522 283.013H275.094L275.702 281.8L286.022 279.98L279.646 303.348C279.343 304.869 279.041 305.779 279.041 306.385C279.041 307.296 279.343 307.599 280.254 307.599C281.165 307.599 282.682 306.688 284.198 304.869L286.63 301.831L288.449 298.793C289.36 297.58 290.271 296.063 291.184 294.242C292.398 292.422 293.309 290.298 294.222 288.173C294.827 286.351 295.435 284.835 296.041 283.011L296.649 280.584H301.811L300.9 284.225L298.776 291.814C297.865 295.152 296.954 297.883 296.349 300.315L295.438 303.956C295.13 305.169 295.13 306.08 295.13 306.686C295.13 307.294 295.438 307.597 295.738 307.597C296.346 307.597 297.255 306.991 298.166 305.777L299.987 303.653L300.898 302.742L302.112 303.653L301.201 304.559L299.077 307.597C298.471 308.205 297.56 309.118 296.952 309.721C295.738 310.632 294.525 311.238 293.311 311.238C290.884 311.238 289.665 310.024 289.665 307.9C289.665 306.993 289.665 306.383 289.973 305.169L290.578 302.742L292.099 296.976L289.663 300.62ZM316.073 287.873C316.983 286.351 317.894 285.138 318.807 284.227C321.538 281.194 324.573 279.98 327.611 279.98C328.521 279.98 329.432 279.98 330.648 280.586C333.681 281.8 334.899 284.534 335.2 288.779C334.897 294.244 332.773 299.404 328.221 303.958C325.486 306.688 322.756 308.813 320.023 310.026C318.204 310.937 316.075 311.24 313.955 311.24C310.617 311.24 307.882 310.334 306.058 308.51L305.755 307.902C305.452 307.902 305.452 307.599 305.452 307.599V306.688L306.058 304.869L314.558 273.604C314.861 272.391 315.166 271.48 315.166 270.87V270.264C314.859 269.656 313.953 269.353 312.739 269.353H310.917L311.22 268.139L321.845 266.318L316.073 287.873ZM311.218 306.688C311.218 308.51 312.129 309.423 314.556 309.12C317.291 309.12 319.718 307.902 322.146 305.172C324.573 302.441 326.094 299.707 327.611 296.368C328.521 293.638 329.127 290.903 329.127 288.476C329.127 285.138 327.611 283.621 324.88 283.314C322.756 283.314 320.629 284.835 318.504 287.565C316.727 289.6 315.383 291.977 314.556 294.549L313.04 298.796C311.826 302.441 311.218 305.172 311.218 306.688ZM20.1208 383.48L21.0317 383.177C22.5482 382.87 23.4613 382.267 23.7642 381.656C24.3721 381.051 24.675 380.443 24.675 379.837L25.8909 375.586L33.4782 348.876L33.781 347.359C34.0861 347.052 34.0861 346.448 34.0861 346.145C34.0861 344.624 32.8702 344.021 31.0508 343.713L29.532 343.411L29.8349 341.894H46.2275L45.9247 343.411L44.7087 343.713C42.8871 344.021 41.6734 344.927 41.0654 346.448C40.7625 347.662 40.1546 349.178 39.8517 350.699L32.2622 377.405C31.9571 378.926 31.6543 379.837 31.6543 380.443C31.6543 381.959 32.5651 382.87 34.9925 383.177L36.2062 383.48L35.9033 384.997H19.5129L20.1208 383.48ZM44.1008 376.501L46.2253 368.912L48.3498 361.322C48.3498 360.411 48.3498 359.805 48.6549 359.198C48.3498 358.287 48.0469 357.681 46.8332 357.681L45.3167 357.378H44.4059L45.0138 356.164L55.3358 354.343L51.6925 367.395L52.6033 365.874L54.425 363.144C58.9791 357.378 62.6202 354.341 65.9606 354.341C68.3902 354.643 69.6039 355.857 69.9068 358.284V359.803L69.6017 361.623L68.996 364.055L65.3527 377.712L64.4418 380.746V381.656C64.7447 382.264 65.0498 382.264 65.3527 382.264C66.2635 382.264 67.4772 381.354 68.996 379.227L70.5125 377.405L71.7284 378.316L70.2097 380.138C69.6017 381.048 68.996 381.957 68.388 382.565C67.78 383.173 66.8714 383.779 66.2635 384.387L64.4418 385.297C63.531 385.6 62.923 385.903 62.3173 385.903C60.4957 385.903 59.282 384.69 59.282 382.565C59.282 381.654 59.282 381.048 59.5848 380.138C59.8877 378.621 60.1928 377.403 60.4957 376.189L63.8339 364.052L64.139 361.928C64.4418 361.017 64.4418 360.407 64.4418 359.803V358.892C64.139 358.284 63.8339 357.982 63.2259 357.982C62.0122 357.982 60.4934 358.892 58.674 361.019L56.8523 362.839C55.3358 364.66 54.1199 366.787 52.6033 369.214C51.6925 370.735 51.0845 371.949 50.7817 373.163L49.2651 376.804L46.8355 384.997H41.6756L44.1008 376.501ZM76.2759 357.681L76.5787 356.164C79.0083 355.556 80.8278 354.643 82.3466 353.127C83.4291 352.41 84.445 351.598 85.3819 350.699L87.5064 347.965H88.7223L86.9007 355.251H92.0606L91.4526 357.679H86.2927L80.5249 378.316L80.222 379.837L79.9192 381.051C79.9192 381.354 79.9192 381.656 80.222 381.957L80.5249 382.264C81.4357 382.264 82.3465 381.354 83.8653 379.53C84.4733 378.924 84.7762 378.316 85.3819 377.71L85.6848 377.102L86.8984 377.71L86.2905 378.924L84.166 381.351C83.558 382.262 82.9523 383.173 82.3443 383.779C80.8255 384.992 79.309 385.903 77.4873 385.903C75.3628 385.903 74.452 384.69 74.452 382.565C74.452 381.957 74.452 381.351 74.7548 380.44L75.9685 376.497L81.1306 357.677H76.2759V357.681ZM99.0398 374.074C98.737 374.98 98.4319 375.893 98.4319 376.804C98.4319 377.41 98.7347 378.018 98.7347 378.626C99.0376 379.231 99.3427 379.839 100.254 380.445C101.164 381.659 102.683 382.267 104.503 382.267C105.718 382.267 106.932 381.959 107.841 381.659C108.752 381.053 109.965 380.445 111.181 379.839L113.003 378.318L113.609 378.015L114.825 378.926L113.306 380.14C112.395 381.051 111.484 381.656 110.573 382.264C107.538 384.692 104.503 385.905 101.467 385.905C100.097 385.928 98.7424 385.616 97.521 384.995C94.1828 383.478 92.664 380.743 92.664 376.499C92.664 371.337 94.7886 366.482 98.4319 361.93C102.986 357.071 107.54 354.341 112.395 354.341C116.038 354.643 118.163 356.162 118.163 359.503C117.86 363.144 115.733 366.177 111.484 368.909C108.449 370.426 104.805 371.64 100.254 372.55H99.3427L99.0398 374.074ZM102.077 369.822C107.237 368.609 110.878 365.571 112.397 361.019C112.7 360.108 113.005 359.503 113.005 358.895C113.005 357.073 112.397 356.467 110.878 356.467C108.754 356.467 106.326 358.592 103.594 362.233C102.683 363.749 101.772 365.27 101.164 366.785C100.861 367.696 100.254 368.909 99.9507 370.426L102.077 369.822ZM123.022 377.715L126.057 367.09L127.576 361.324V358.594C127.576 357.986 126.968 357.683 125.754 357.683L124.236 357.38H123.325L123.628 356.167L134.25 354.345L130.912 366.179L132.734 363.752L135.163 360.111C137.593 356.47 140.02 354.345 142.145 354.345C144.269 354.345 145.18 355.559 145.483 357.986C145.18 359.2 145.18 360.111 144.572 360.413C143.964 361.324 143.053 361.627 142.145 361.627C141.234 361.627 140.323 361.324 140.018 360.413L139.107 359.507H138.499L138.194 359.81L136.678 361.327C135.159 362.843 133.945 364.968 132.426 367.702C131.818 368.916 130.908 370.433 130.302 372.254C129.391 374.076 128.783 376.198 128.177 378.02L126.053 384.999H120.893L123.022 377.715ZM146.697 376.501L148.821 368.912L150.643 361.322C150.643 360.411 150.946 359.805 150.946 359.198C150.946 358.287 150.338 357.681 149.427 357.681L147.91 357.378H147L147.303 356.164L157.925 354.343L153.979 367.395L155.193 365.874L157.014 363.144C161.263 357.378 165.209 354.341 168.245 354.341C170.674 354.643 172.191 355.857 172.496 358.284V358.892L172.191 359.803L171.888 361.623L171.585 364.055L167.639 377.712L167.031 380.746V381.656C167.031 382.264 167.334 382.264 167.639 382.264C168.55 382.264 169.764 381.354 171.585 379.227L172.799 377.405L174.013 378.316L172.496 380.138C171.888 381.048 171.28 381.957 170.674 382.565C170.066 383.173 169.156 383.779 168.55 384.387L166.728 385.297C166.12 385.6 165.212 385.903 164.604 385.903C162.782 385.903 161.873 384.69 161.568 382.565C161.568 381.654 161.568 381.048 161.871 380.138C162.174 378.621 162.479 377.403 162.782 376.189L166.12 364.052L166.728 361.928C166.728 361.017 167.033 360.407 167.033 359.803L166.728 358.892C166.728 358.284 166.12 357.982 165.515 357.982C164.301 357.982 162.782 358.892 160.963 361.019L159.141 362.839C157.622 364.66 156.409 366.787 154.892 369.214C153.981 370.735 153.373 371.949 153.07 373.163L151.857 376.804L149.124 384.997H144.267L146.697 376.501ZM194.354 377.715C192.229 380.445 190.408 382.267 189.194 383.18C187.069 384.999 184.642 385.91 182.515 385.91C180.388 385.91 178.872 384.999 177.658 383.18C176.445 381.659 175.837 379.841 175.837 377.715C175.837 375.588 176.445 373.163 177.355 370.428C179.48 365.573 182.212 361.625 185.856 358.594C187.374 357.38 188.891 356.167 190.713 355.556C192.229 354.646 193.748 354.343 195.265 354.343C196.781 354.343 198.3 354.949 199.516 356.164L200.124 357.378L200.732 355.254H205.589L204.983 357.681L203.161 364.36L200.732 373.466L199.518 378.32C199.213 379.534 198.91 380.445 198.91 381.358C198.91 381.661 199.213 381.661 199.213 381.964L199.518 382.271H199.821C200.429 382.271 201.948 381.057 203.769 378.933L204.676 377.412L205.584 378.626L204.673 380.142L202.549 382.267C200.122 384.694 198.3 385.908 196.783 385.908C194.659 385.605 193.746 384.694 193.746 382.87C193.746 382.567 194.051 381.656 194.051 380.746L194.962 376.499L194.354 377.715ZM181.909 377.407C181.909 380.445 183.123 382.267 185.553 382.267C188.285 382.267 191.321 379.839 194.053 375.287C194.964 373.766 195.57 372.25 196.48 370.125C197.088 368.609 197.696 366.787 197.999 364.963C198.607 363.144 198.91 361.625 198.91 360.411C198.91 359.198 198.607 358.287 197.999 357.681C197.088 356.77 196.48 356.467 195.267 356.467C193.748 356.467 191.929 357.378 190.107 358.895C188.574 360.127 187.33 361.681 186.464 363.447C185.553 365.268 184.642 366.785 184.034 368.609C182.515 371.947 181.909 374.677 181.909 377.407ZM210.444 357.681L210.746 356.164C213.174 355.556 214.998 354.643 216.512 353.127C217.423 352.519 218.334 351.606 219.55 350.699L221.674 347.965H222.888L221.066 355.251H226.228L225.62 357.679H220.463L214.693 378.316L214.39 379.837L214.087 381.051C214.087 381.354 214.087 381.656 214.39 381.957L214.693 382.264C215.301 382.264 216.514 381.354 218.031 379.53C218.639 378.924 218.942 378.316 219.552 377.71L219.855 377.102L221.068 377.71L220.158 378.924L218.338 381.351C217.73 382.262 217.124 383.173 216.516 383.779C215 384.992 213.479 385.903 211.662 385.903C209.537 385.903 208.624 384.69 208.624 382.565C208.624 381.957 208.624 381.351 208.927 380.44L210.141 376.497L215.303 357.677H210.444V357.681ZM238.973 378.626L238.367 379.231C237.734 380.462 236.915 381.588 235.94 382.569C234.118 384.694 232.294 385.908 230.17 385.908C227.743 385.908 226.836 384.391 226.836 381.356C226.836 380.142 227.139 378.318 228.05 375.59L232.297 361.324C232.297 360.719 232.604 360.111 232.604 359.505C232.604 358.287 231.996 357.683 230.782 357.683L229.266 357.38H228.355L228.961 356.167L239.586 354.345L232.907 377.107L232.299 379.534C231.996 380.445 231.996 380.748 231.996 381.356C231.996 381.962 232.299 382.267 232.907 382.267C233.818 382.267 234.423 381.959 235.334 381.053C235.942 380.142 236.548 379.231 237.459 378.318L237.762 377.712L238.973 378.626ZM235.029 344.326C235.029 341.899 236.243 340.685 238.367 340.685C240.492 340.685 241.706 341.899 241.706 344.326C241.706 345.237 241.403 346.148 240.795 346.753C240.189 347.664 239.278 347.967 238.064 347.967C236.243 347.967 235.029 346.753 235.029 344.326ZM243.832 375.891C243.832 372.25 244.743 368.912 246.87 365.874C248.689 362.536 250.814 360.108 253.549 357.982C256.582 355.554 259.924 354.341 263.263 354.341C265.993 354.341 268.42 355.554 270.242 357.378C272.064 359.198 272.669 361.322 272.669 364.357C272.669 367.998 271.758 371.337 269.632 374.677C267.812 377.715 265.688 380.443 262.953 382.267C259.92 384.694 256.885 385.908 253.546 385.908C251.882 385.928 250.231 385.619 248.687 384.997C245.349 383.48 243.832 380.445 243.832 375.891ZM249.598 377.407C249.598 379.229 249.901 380.746 250.812 381.959C251.722 383.177 252.936 383.781 254.76 383.781C257.798 383.781 260.526 381.656 262.652 377.102C265.383 372.248 266.904 367.393 266.904 362.836C266.904 358.59 265.383 356.465 262.352 356.465C259.014 356.465 255.673 359.195 252.941 364.961C250.812 369.52 249.598 373.766 249.598 377.407ZM277.221 376.501L279.346 368.912L281.167 361.322C281.47 360.411 281.47 359.805 281.47 359.198C281.47 358.287 280.864 357.681 279.954 357.681L278.433 357.378H277.522L277.829 356.164L288.449 354.343L284.808 367.395L285.719 365.874L287.541 363.144C291.792 357.378 295.734 354.341 299.074 354.341C301.502 354.643 302.715 355.857 303.023 358.284V359.803L302.715 361.623L302.11 364.055L298.469 377.712L297.558 380.746V381.656C297.558 382.264 297.861 382.264 298.469 382.264C299.074 382.264 300.589 381.354 302.11 379.227L303.626 377.405L304.537 378.316L303.323 380.138C302.715 381.048 302.11 381.957 301.199 382.565C300.591 383.173 299.985 383.779 299.074 384.387L297.253 385.297C296.647 385.6 296.039 385.903 295.433 385.903C293.309 385.903 292.396 384.69 292.396 382.565V380.138C292.698 378.621 293.004 377.403 293.609 376.189L296.948 364.052L297.25 361.928C297.558 361.017 297.558 360.407 297.558 359.803V358.892C297.25 358.284 296.95 357.982 296.344 357.982C294.823 357.982 293.306 358.892 291.485 361.019L289.968 362.839C288.447 364.66 286.931 366.787 285.717 369.214C284.954 370.5 284.245 371.818 283.592 373.163L282.379 376.804L279.951 384.997H274.789L277.221 376.501ZM324.88 377.715C322.756 380.445 321.235 382.267 320.021 383.18C317.594 384.999 315.469 385.91 313.042 385.91C310.917 385.91 309.396 384.999 308.183 383.18C307.276 381.659 306.666 379.841 306.666 377.715C306.666 375.588 306.969 373.163 308.183 370.428C310.004 365.573 312.739 361.625 316.683 358.594C318.204 357.38 319.72 356.167 321.235 355.556C322.756 354.646 324.272 354.343 325.787 354.343C327.608 354.343 328.824 354.949 330.038 356.164L330.949 357.378L331.557 355.254H336.411L335.501 357.681L333.679 364.36L331.252 373.466L330.038 378.32C329.735 379.534 329.735 380.445 329.735 381.358V381.964L330.038 382.271H330.345C331.252 382.271 332.465 381.057 334.289 378.933L335.2 377.412L336.411 378.626L335.198 380.142L333.376 382.267C330.949 384.694 328.824 385.908 327.308 385.908C325.486 385.605 324.573 384.694 324.573 382.87C324.573 382.567 324.573 381.656 324.88 380.746L325.787 376.499L324.88 377.715ZM312.432 377.407C312.432 380.445 313.953 382.267 316.38 382.267C319.11 382.267 321.845 379.839 324.573 375.287C325.484 373.766 326.395 372.25 327 370.125C327.608 368.609 328.218 366.787 328.822 364.963C329.125 363.144 329.43 361.625 329.43 360.411C329.43 359.198 329.123 358.287 328.519 357.681C327.911 356.77 326.998 356.467 326.092 356.467C324.27 356.467 322.446 357.378 320.627 358.895C319.413 360.108 318.199 361.625 316.981 363.447C316.07 365.268 315.162 366.785 314.554 368.609C313.04 371.947 312.432 374.677 312.432 377.407ZM348.856 347.967C349.163 346.753 349.464 346.148 349.464 345.54V344.932C349.161 344.326 348.25 344.025 347.036 344.025H345.215L345.823 342.812L356.142 340.99L346.125 378.02C345.823 379.536 345.518 380.75 345.518 381.057L345.825 381.663C345.825 382.271 346.128 382.271 346.431 382.271C347.039 382.271 347.644 381.663 348.858 380.75L350.379 378.931L351.593 377.717L352.198 376.806L353.412 377.717L352.506 378.931C351.898 380.144 350.985 381.055 350.381 381.964C347.949 384.396 345.829 385.912 344.005 385.912C342.792 385.912 341.881 385.609 341.271 385.001C340.364 384.396 340.057 383.485 340.057 382.574C340.057 381.663 340.364 381.057 340.364 380.147L341.578 375.895L348.856 347.967ZM366.769 339.471C367.676 339.471 368.286 339.774 369.197 340.077C369.803 340.38 370.41 340.988 370.713 341.598C371.321 342.504 371.321 343.114 371.321 344.025C371.321 344.932 371.321 345.542 370.713 346.15C370.467 346.932 369.922 347.586 369.197 347.969C368.286 348.272 367.676 348.577 366.769 348.577C365.859 348.577 365.248 348.27 364.645 347.969C364.215 347.839 363.824 347.605 363.506 347.288C363.188 346.97 362.954 346.58 362.823 346.15C362.52 345.542 362.215 344.932 362.215 344.025C362.215 343.114 362.523 342.504 362.823 341.598C363.126 340.99 363.734 340.38 364.645 340.077C365.248 339.471 366.159 339.471 366.769 339.471ZM366.769 340.378C366.161 340.378 365.551 340.377 364.948 340.685C364.34 340.988 364.037 341.596 363.734 342.201C363.431 342.809 363.126 343.415 363.126 344.023C363.126 344.629 363.433 345.237 363.734 345.842C364.037 346.45 364.34 346.753 364.948 347.056C365.553 347.363 366.161 347.664 366.769 347.664C367.375 347.664 367.983 347.361 368.589 347.056C369.197 346.753 369.803 346.45 370.11 345.842C370.413 345.237 370.413 344.629 370.413 344.023C370.413 343.415 370.413 342.809 370.11 342.201C369.765 341.556 369.236 341.027 368.589 340.685C367.983 340.377 367.373 340.378 366.769 340.378ZM364.643 346.45V341.596H367.373C367.676 341.596 367.981 341.596 367.981 341.899C368.284 341.899 368.284 342.201 368.587 342.201V342.809C368.587 343.415 368.587 343.716 368.284 343.716C367.981 344.023 367.676 344.324 367.373 344.324C367.373 344.324 367.676 344.324 367.676 344.627C367.676 344.627 367.983 344.627 367.983 344.929C367.983 344.929 368.286 345.237 368.286 345.537L368.892 346.448H367.678L367.375 345.537C367.072 345.235 366.769 344.929 366.769 344.627C366.462 344.627 366.161 344.324 365.859 344.324V346.448H364.643V346.45ZM365.856 343.716H367.07C367.373 343.716 367.373 343.413 367.373 343.413C367.676 343.413 367.676 343.11 367.676 343.11C367.676 342.807 367.676 342.807 367.373 342.502H367.07H365.856V343.716Z" fill="black"/>
<path d="M7.97717 2.86182H391.052V397.138H7.97717V2.86182Z" stroke="#234B8D" stroke-width="5.26572" stroke-miterlimit="2.613"/>
</svg>
