<svg width="400" height="400" viewBox="0 0 400 400" fill="none" xmlns="http://www.w3.org/2000/svg">
<g clip-path="url(#clip0_2_290)">
<path d="M0 0H400V400H0V0Z" fill="black"/>
<path d="M47.9486 246.71C46.5583 244.474 44.7047 240.902 43.5598 238.258C36.8814 222.771 36.5815 206.739 42.1969 191.362C48.3847 174.485 60.2152 161.589 75.5075 154.991C94.7252 146.729 115.96 148.338 134.387 159.271C146.081 165.978 154.368 176.339 160.665 191.008C161.456 192.889 162.164 194.879 162.873 196.597L47.9486 246.71ZM86.3294 179.884C72.6726 185.746 65.6397 198.56 67.1117 213.556L124.901 188.663C114.951 176.994 102.031 173.122 86.3294 179.884ZM132.097 234.032C132.07 234.032 132.07 234.059 132.07 234.059L130.871 233.241C127.409 238.83 122.039 243.384 115.251 246.328C102.331 251.945 90.3637 250.5 81.7499 242.947L80.9593 244.147C80.9593 244.147 80.9594 244.12 80.9321 244.12L66.2667 266.068C69.9194 268.604 73.8175 270.73 77.9063 272.448C94.0983 279.182 110.672 278.855 127 271.766C138.803 266.64 148.071 258.843 154.395 248.946L132.097 234.032ZM203.026 122.709V244.692L221.998 252.381L211.231 277.519L190.296 268.794C185.607 266.749 182.391 263.641 179.992 260.124C177.675 256.552 175.957 251.617 175.957 245.019V122.709H203.026Z" fill="white"/>
<path d="M287.58 179.002C291.316 177.757 295.301 177.092 299.436 177.092C317.535 177.092 332.645 189.947 336.099 207.037L361.753 201.805C355.875 172.774 330.204 150.918 299.436 150.918C292.379 150.918 285.621 152.064 279.278 154.19L287.58 179.002Z" fill="#FFCB05"/>
<path d="M257.31 262.143L274.662 242.528C266.924 235.669 262.042 225.654 262.042 214.494C262.042 203.35 266.924 193.335 274.662 186.492L257.31 166.862C244.159 178.52 235.857 195.544 235.857 214.494C235.857 233.46 244.159 250.484 257.31 262.143Z" fill="#00A4E0"/>
<path d="M336.099 222.001C332.629 239.074 317.535 251.912 299.452 251.912C295.301 251.912 291.3 251.248 287.58 249.986L279.278 274.831C285.621 276.941 292.395 278.087 299.452 278.087C330.188 278.087 355.842 256.263 361.753 227.266L336.099 222.001Z" fill="#EF4123"/>
</g>
<defs>
<clipPath id="clip0_2_290">
<rect width="400" height="400" fill="white"/>
</clipPath>
</defs>
</svg>
