<svg width="400" height="400" viewBox="0 0 400 400" fill="none" xmlns="http://www.w3.org/2000/svg">
<g clip-path="url(#clip0_2_298)">
<path d="M109.809 0H68.3516C50.0344 1.99042 35.0609 18.9386 30.7375 53.8904C28.4836 72.1201 27.243 92.1375 25.4797 111.035C16.5187 207.115 8.57188 305.84 0 400H322.75C347.702 400 364.834 387.887 369.464 342.394C371.615 321.259 373.675 297.32 375.733 274.101C383.755 183.568 391.784 93.0385 400 0H109.809Z" fill="#B82126"/>
<path d="M276.22 212.595C271.743 216.977 259.178 218.221 260.464 207.747C261.531 199.047 271.003 197.199 281.269 198.455C280.506 203.214 279.631 209.256 276.22 212.596V212.595ZM262.079 178.66C261.653 181.06 260.996 183.232 260.464 185.527C265.589 184.242 281.55 180.303 283.088 187.143C283.599 189.417 282.717 191.831 282.078 193.607C267.645 192.24 255.881 194.639 252.788 204.919C250.716 211.805 253.021 218.582 257.435 220.474C265.935 224.114 276.276 219.942 279.856 214.211C279.484 216.196 279.131 218.2 279.249 220.675H286.723C286.803 213.517 287.844 207.724 288.945 201.283C289.884 195.799 291.649 190.368 291.368 185.528C290.728 174.442 272.36 178.362 262.079 178.66ZM337.02 216.028C331.172 216.153 328.265 212.535 328.131 206.535C327.899 196.028 332.508 184.353 341.867 183.306C346.225 182.818 349.38 183.832 352.573 184.922C349.642 196.725 350.7 215.735 337.02 216.028ZM356.41 160.481C355.667 167.007 354.671 173.285 353.381 179.265C332.076 172.522 319.01 188.197 319.244 207.545C319.29 211.287 319.934 214.998 322.274 217.644C326.307 222.207 337.856 223.297 343.685 219.463C344.815 218.721 345.967 217.371 346.717 216.433C347.278 215.728 348.17 213.882 348.331 214.412C348.025 216.463 347.567 218.362 347.524 220.675H355.402C356.919 198.896 361.614 180.294 365.097 160.48L356.41 160.481ZM134.017 212.797C129.369 217.719 117.945 217.643 117.049 209.363C116.659 205.76 118.002 201.982 118.665 198.253C119.337 194.48 119.82 190.86 120.482 187.547C125.06 181.958 138.51 181.284 139.874 190.578C141.059 198.646 137.865 208.721 134.017 212.797ZM140.885 178.66C133.533 175.899 124.573 179.195 120.689 182.331C120.703 182.468 120.597 182.487 120.482 182.498C120.549 182.442 120.621 182.386 120.689 182.331C120.689 182.319 120.687 182.308 120.685 182.296C120.75 180.947 121.225 180.008 121.291 178.66H113.817C110.703 199.381 107.01 219.522 103.111 239.46H111.797C113.054 231.694 113.885 223.503 115.635 216.231C117.619 223.879 130.571 222.418 136.036 219.463C147.313 213.365 156.012 184.342 140.885 178.66ZM182.091 193.203H161.69C162.335 188.514 166.555 183.358 173.203 183.104C179.46 182.864 183.94 185.401 182.091 193.203ZM173.81 177.852C167.533 178.335 162.228 180.141 158.458 184.114C153.833 188.985 150.088 199.757 151.185 209.565C152.751 223.559 170.174 223.057 184.111 219.664C184.348 217.209 184.942 215.11 185.323 212.797C179.581 214.946 169.614 217.944 163.71 214.211C159.252 211.392 159.225 204.254 160.68 198.051C170.046 197.753 179.781 197.81 189.16 198.051C189.756 193.654 191.459 188.86 189.968 184.518C188.003 178.785 180.968 177.301 173.81 177.852ZM97.4557 178.66C97.2205 178.694 97.2361 178.98 97.2525 179.265C95.3393 193.578 92.7494 207.216 89.9814 220.675H98.6674C100.754 206.265 103.145 192.16 106.141 178.66H97.4557ZM324.093 178.861C316.417 175.024 310.026 181.464 307.531 185.325C308.241 183.344 308.281 180.692 308.943 178.66H301.267C299.199 193.087 296.703 207.088 293.794 220.675H302.681C302.738 215.107 303.831 210.988 304.701 205.525C306.559 193.864 309.285 181.077 322.881 184.922C323.332 182.95 323.52 180.713 324.093 178.861ZM226.529 210.777C225.729 208.709 225.521 205.292 225.721 202.697C226.171 196.86 228.297 189.754 231.579 186.538C236.109 182.098 245.051 182.832 252.182 185.325C252.404 182.921 252.887 180.778 253.193 178.458C241.496 176.548 230.395 177.736 224.51 183.911C218.749 189.957 214.971 203.852 217.642 212.595C220.767 222.825 234.778 223.382 246.124 219.463C246.625 217.407 246.891 215.114 247.335 212.999C241.136 216.22 229.285 217.894 226.529 210.777ZM221.682 178.66C213.98 175.55 207.926 180.806 205.12 185.73C205.755 183.539 206.018 180.974 206.532 178.66H198.856C196.98 193.213 194.214 206.876 191.585 220.675H200.271C201.488 212.484 202.013 201.442 204.714 193.607C206.873 187.346 212.521 182.012 220.672 184.922C220.786 182.612 221.448 180.849 221.682 178.66ZM81.6994 161.692C80.4588 169.743 79.0611 177.638 77.6596 185.528C68.6611 185.622 59.4736 185.972 50.7947 185.325C52.4338 177.607 53.6096 169.423 55.2377 161.692H45.5424C42.0713 181.385 38.915 201.389 35.04 220.676H44.9369C46.49 210.782 47.9416 200.787 49.9861 191.387C58.426 191.178 68.5408 190.817 76.6502 191.589C74.9783 201.363 72.9572 210.788 71.3986 220.676H81.2963C84.476 200.694 87.8275 180.883 91.8002 161.693L81.6994 161.692ZM106.342 170.58C108.074 169.388 110.304 163.954 107.756 161.692C106.949 160.976 105.599 160.768 103.717 161.087C101.97 161.382 100.965 161.975 100.283 162.904C99.1846 164.399 98.1791 168.906 99.8783 170.58C101.533 172.21 105.241 171.338 106.342 170.58Z" fill="white"/>
</g>
<defs>
<clipPath id="clip0_2_298">
<rect width="400" height="400" fill="white"/>
</clipPath>
</defs>
</svg>
