<svg width="400" height="400" viewBox="0 0 400 400" fill="none" xmlns="http://www.w3.org/2000/svg">
<path d="M400 200.078C400 268.539 344.629 323.996 276.34 323.996C208.052 323.996 152.68 268.539 152.68 200.078C152.68 131.618 207.965 76.16 276.254 76.16C344.542 76.16 400 131.618 400 200.078Z" fill="#F79F1A"/>
<path d="M247.32 200.078C247.32 268.539 191.948 323.996 123.66 323.996C55.3714 323.996 0 268.539 0 200.078C0 131.618 55.3714 76.16 123.66 76.16C191.948 76.16 247.32 131.618 247.32 200.078Z" fill="#EA001B"/>
<path d="M199.957 102.511C171.109 125.159 152.594 160.466 152.594 200.078C152.594 239.691 171.109 274.998 199.957 297.646C228.805 274.998 247.32 239.691 247.32 200.078C247.32 160.466 228.805 125.245 199.957 102.511Z" fill="#FF5F01"/>
</svg>
