<svg width="400" height="400" viewBox="0 0 400 400" fill="none" xmlns="http://www.w3.org/2000/svg">
<path d="M260.535 135C232.133 135 206.752 149.73 206.752 176.945C206.752 208.156 251.766 210.311 251.766 225.991C251.766 232.592 244.205 238.502 231.291 238.502C212.963 238.502 199.265 230.245 199.265 230.245L193.404 257.708C193.404 257.708 209.184 264.683 230.135 264.683C261.186 264.683 285.62 249.229 285.62 221.549C285.62 188.57 240.419 186.478 240.419 171.925C240.419 166.753 246.626 161.087 259.503 161.087C274.032 161.087 285.886 167.092 285.886 167.092L291.622 140.568C291.622 140.568 278.724 135 260.535 135ZM0.687888 137.002L0 141.006C0 141.006 11.9487 143.194 22.7103 147.559C36.5666 152.564 37.554 155.477 39.8875 164.527L65.3169 262.618H99.4062L151.923 137.002H117.912L84.167 222.409L70.3972 150.014C69.1343 141.728 62.7375 137.002 54.9077 137.002H0.687888ZM165.599 137.002L138.919 262.618H171.351L197.937 137.002H165.599V137.002ZM346.483 137.002C338.663 137.002 334.519 141.192 331.479 148.513L283.964 262.618H317.974L324.555 243.6H365.989L369.991 262.618H400L373.82 137.002H346.483ZM350.906 170.94L360.988 218.077H333.979L350.906 170.94Z" fill="#1434CB"/>
</svg>
