<svg width="400" height="400" viewBox="0 0 400 400" fill="none" xmlns="http://www.w3.org/2000/svg">
<g clip-path="url(#clip0_1_42)">
<path d="M0 400H400V0H0V400Z" fill="#FDE100"/>
<path fill-rule="evenodd" clip-rule="evenodd" d="M50.2541 149.955L112.642 191.605L187.578 141.627L156.384 120.735L196.967 93.7515L284.337 152.068L140.782 247.818L171.985 268.7L350.016 149.955L200.135 49.9881L50.2541 149.955ZM350.016 249.921L287.505 208.271L212.559 258.259L243.763 279.027L203.179 306.125L115.81 247.808L259.364 152.058L228.161 131.185L50.2541 249.921L200.135 349.898L350.016 249.921ZM350.016 91.6385L318.698 112.521L287.495 91.6385L350.016 49.9881V91.6385ZM50.2541 308.238L81.448 287.355L112.642 308.238L50.2541 349.898V308.238Z" fill="#003882"/>
</g>
<defs>
<clipPath id="clip0_1_42">
<rect width="400" height="400" fill="white"/>
</clipPath>
</defs>
</svg>
