<svg width="400" height="400" viewBox="0 0 400 400" fill="none" xmlns="http://www.w3.org/2000/svg">
<path d="M234.694 256.067L203.287 274.153V389.948L237.024 389.994C240.343 390 243.036 387.306 243.036 383.991V260.384C243.036 255.647 238.462 253.92 234.694 256.067ZM189.134 90.5329C165.874 90.5329 140.451 92.6742 115.327 96.9452C140.756 64.2851 181.068 43.2177 226.029 43.2177C259.208 43.2177 292.392 55.7315 314.721 74.3525C318.754 77.7083 321.854 78.0191 324.955 74.9627C328.056 71.9119 327.746 68.8554 324.334 64.8895C295.183 31.0033 252.391 8.11126 201.843 9.02648C135.791 10.2525 79.6626 52.0706 58.2665 110.069C38.7287 116.176 20.7443 123.498 4.92877 132.351C0.585113 134.797 -0.962493 137.848 0.585114 141.509C2.13847 144.865 5.23943 146.085 9.57733 144.865C23.2239 140.893 37.1754 137.537 51.7482 134.487C50.1948 142.119 49.2686 150.057 49.2686 158.3C48.0259 211.722 76.5559 262.393 120.591 290.172C124.934 292.923 128.657 292.923 131.136 289.562C133.616 286.206 133.305 283.155 129.583 279.794C101.674 254.76 86.1695 217.518 86.1695 180.581C86.1695 161.96 89.8918 143.95 97.0257 127.769C111.599 126.549 127.414 125.634 144.783 125.634C257.66 125.634 352.858 162.876 352.858 211.716C352.858 236.444 321.538 261.167 284.326 277.652C275.334 281.618 274.402 284.364 275.645 288.336C276.882 291.997 280.915 293.223 285.569 291.692C350.695 270.331 400 235.23 400 192.796C400 135.102 306.971 90.5329 189.134 90.5329ZM165.057 300.648V386.126C165.057 388.267 166.789 390 168.929 390H192.695V280.243L168.969 293.908C166.547 295.289 165.057 297.459 165.057 300.648Z" fill="#CE1C30"/>
</svg>
