<svg width="400" height="400" viewBox="0 0 400 400" fill="none" xmlns="http://www.w3.org/2000/svg">
<rect width="400" height="400" fill="white"/>
<path d="M0 400H400V0H0V400ZM148.459 116.999C174.587 124.887 197.812 144.399 207.766 166.816C221.038 195.877 219.794 197.952 186.2 197.952C158.412 197.952 156.339 197.537 143.482 183.422C128.966 168.062 117.768 165.571 102.423 173.874C87.9067 181.346 83.3446 190.48 82.9299 210.822C82.9299 252.751 130.625 266.866 148.459 229.918C153.85 219.125 155.094 218.709 184.956 218.709C215.231 218.709 215.646 218.71 215.646 229.088C215.646 245.279 201.13 270.187 183.711 284.718C141.823 319.59 73.3909 315.023 38.9676 276C20.7191 255.242 15.3275 235.73 17.4012 201.689C19.8896 168.062 32.3318 145.644 57.6308 129.868C87.9067 110.357 114.035 107.035 148.459 116.999ZM338.409 130.284C335.091 136.926 328.455 147.305 323.893 154.362C318.916 161.004 315.183 168.062 315.183 169.722C315.183 170.968 324.308 174.289 335.92 177.195C393.154 190.895 403.523 261.885 353.339 295.926C327.211 313.778 283.249 312.117 255.461 292.19C242.189 282.642 228.503 255.657 228.088 238.636C228.088 220.37 240.116 189.649 262.097 153.117L282.419 119.075H344.63L338.409 130.284Z" fill="black"/>
<path d="M295.276 218.279C292.373 219.524 287.811 224.921 285.737 230.733C277.027 253.981 308.133 272.248 324.722 253.566C342.556 234.054 320.575 207.9 295.276 218.279Z" fill="black"/>
</svg>
