<?xml version="1.0" standalone="no"?>
<!DOCTYPE svg PUBLIC "-//W3C//DTD SVG 20010904//EN"
 "http://www.w3.org/TR/2001/REC-SVG-20010904/DTD/svg10.dtd">
<svg version="1.0" xmlns="http://www.w3.org/2000/svg"
 width="106.000000pt" height="73.000000pt" viewBox="0 0 106.000000 73.000000"
 preserveAspectRatio="xMidYMid meet">

<g transform="translate(0.000000,73.000000) scale(0.100000,-0.100000)"
fill="#000000" stroke="none">
<path d="M0 365 l0 -365 530 0 530 0 0 365 0 365 -530 0 -530 0 0 -365z m408
200 c63 -19 119 -66 143 -120 32 -70 29 -75 -52 -75 -67 0 -72 1 -103 35 -35
37 -62 43 -99 23 -35 -18 -46 -40 -47 -89 0 -101 115 -135 158 -46 13 26 16
27 88 27 73 0 74 0 74 -25 0 -39 -35 -99 -77 -134 -101 -84 -266 -73 -349 21
-44 50 -57 97 -52 179 6 81 36 135 97 173 73 47 136 55 219 31z m458 -32 c-8
-16 -24 -41 -35 -58 -12 -16 -21 -33 -21 -37 0 -3 22 -11 50 -18 138 -33 163
-204 42 -286 -63 -43 -169 -39 -236 9 -32 23 -65 88 -66 129 0 44 29 118 82
206 l49 82 75 0 75 0 -15 -27z"/>
<path d="M762 323 c-7 -3 -18 -16 -23 -30 -21 -56 54 -100 94 -55 43 47 -10
110 -71 85z"/>
</g>
</svg>
