<svg width="400" height="400" viewBox="0 0 400 400" fill="none" xmlns="http://www.w3.org/2000/svg">
<path d="M16.3201 140.687V144.489C16.5601 150.852 21.9601 155.935 28.6801 156.175H30.7601C37.4801 155.935 42.8801 150.852 43.1201 144.489V140.687C42.8801 134.323 37.4801 129.24 30.7601 129H28.6801C21.9601 129.24 16.5601 134.323 16.3201 140.687ZM191.84 185.712V237.781C191.84 246.826 195.32 250.908 206.36 250.908C211 250.908 215.52 249.627 218.24 248.667V269.639C213.6 271.2 206.56 271.96 200.76 271.96C177.56 271.96 166.6 260.353 166.6 240.262V135.203H191.84V168.622H218.24V185.712H191.84Z" fill="#FF7A00"/>
<path fill-rule="evenodd" clip-rule="evenodd" d="M226.8 217.369C226.8 186.512 246.24 165.5 277.36 165.5C310.6 165.5 327.08 189.754 325.32 224.934H252.72C254.04 242.984 262.48 252.149 277.48 252.149C290.16 252.149 296.88 246.025 299.8 237.381H324.48C319.68 258.592 302.92 271.96 277.36 271.96C245.84 271.96 226.8 251.148 226.8 219.891V217.369ZM277.16 185.752C263.32 185.752 255.04 193.156 252.72 207.884L299.96 207.484C298.6 193.756 291.2 185.752 277.16 185.752Z" fill="#FF7A00"/>
<path d="M115.92 165.54C99.68 165.54 89.68 175.146 84.64 184.591L83.48 168.622H59.4V268.878H84.64V212.527C84.64 195.877 93.44 185.712 106.76 185.712C120.08 185.712 125 194.517 125 209.805V268.878H150.24V204.362C150.32 181.99 140.64 165.54 115.92 165.54ZM364.68 184.551C371.08 171.984 384.16 165.5 394 165.5C395.76 165.5 398.52 165.741 400 166.061V185.672C397.56 185.432 395.12 185.312 392.68 185.271C374.72 185.271 364.68 196.078 364.68 214.408V268.798H339.44V168.622H363.92L364.68 184.551ZM0 168.622V185.712H17.08V268.878H42.32V168.622H0Z" fill="#FF7A00"/>
</svg>
