<svg width="400" height="400" viewBox="0 0 400 400" fill="none" xmlns="http://www.w3.org/2000/svg">
<path fill-rule="evenodd" clip-rule="evenodd" d="M67.9384 0H331.517L334.937 0.0697834L338.263 0.352867L341.577 0.775518L344.823 1.35222L348.009 2.10535L351.15 2.99937L354.209 4.04612L357.198 5.24693L360.117 6.57676L362.954 8.04616L365.722 9.66962L368.398 11.3997L370.968 13.247L373.457 15.247L375.864 17.3524L378.132 19.5512L380.33 21.8699L382.388 24.2702L384.366 26.7982L386.192 29.4223L387.891 32.1294L389.471 34.9286L390.936 37.7989L392.274 40.7522L393.426 43.7753L394.473 46.8695L395.355 50.0466L396.101 53.2698L396.671 56.5522L397.09 59.8702L397.357 63.2699L397.438 66.7064V333.375L397.357 336.8L397.09 340.176L396.671 343.527L396.101 346.8L395.357 350.026L394.473 353.2L393.426 356.276L392.274 359.3L390.936 362.276L389.471 365.127L387.891 367.926L386.192 370.625L384.366 373.251L382.388 375.751L380.33 378.176L378.131 380.5L375.864 382.7L373.457 384.8L370.968 386.775L368.398 388.627L365.722 390.351L362.954 391.951L360.117 393.426L357.198 394.775L354.209 395.951L351.15 397.001L348.009 397.9L344.823 398.65L341.577 399.226L338.263 399.65L334.937 399.926L331.517 400H67.9384L64.5268 399.926L61.1915 399.65L57.8785 399.226L54.6407 398.649L51.4278 397.9L48.3137 397.001L45.2497 395.951L42.2594 394.775L39.3178 393.426L36.4762 391.951L33.7335 390.351L31.0394 388.627L28.4691 386.775L25.9726 384.8L23.5761 382.7L21.3008 380.501L19.1018 378.176L17.0504 375.751L15.0976 373.251L13.245 370.626L11.5385 367.927L9.95707 365.127L8.49943 362.276L7.16426 359.3L6.00289 356.276L4.9653 353.2L4.07518 350.027L3.33386 346.801L2.76634 343.527L2.34499 340.176L2.07374 336.8L2 333.377V66.7038L2.07374 63.2686L2.34499 59.8689L2.76634 56.5509L3.33254 53.2685L4.07518 50.0453L4.9653 46.8681L6.00289 43.774L7.16558 40.7509L8.49943 37.7976L9.95707 34.9273L11.5385 32.128L13.245 29.421L15.0976 26.7982L17.0504 24.2688L19.1018 21.8686L21.3008 19.5512L23.5748 17.3511L25.9713 15.2444L28.4691 13.247L31.0394 11.3997L33.7335 9.66962L36.4749 8.04616L39.3164 6.57544L42.258 5.24561L45.247 4.04744L48.3124 2.99937L51.4278 2.10404L54.6407 1.35354L57.8772 0.775518L61.1901 0.352867L64.5255 0.0697834L67.9384 0Z" fill="#1A5493"/>
<path fill-rule="evenodd" clip-rule="evenodd" d="M34.9436 333.325H65.6895V199.973H34.9436V333.325ZM203.454 230.47H201.697L199.964 230.529L198.254 230.599L196.603 230.704L194.974 230.799L193.37 230.952L191.787 231.128L190.23 231.304L188.717 231.528L187.241 231.752L185.775 232L184.344 232.27L182.961 232.553L181.6 232.846L180.262 233.175L178.958 233.505L177.692 233.847L176.459 234.2L175.273 234.575L174.11 234.952L172.97 235.328L171.889 235.728L170.83 236.129L169.807 236.553L168.818 236.952L167.863 237.376L166.946 237.8L166.05 238.222L165.213 238.646L164.398 239.07L163.63 239.505L162.886 239.929L168.678 259.576L169.341 259.176L170.039 258.775L170.748 258.375L171.492 257.999L172.26 257.623L173.05 257.247L173.866 256.87L174.703 256.528L175.576 256.176L176.458 255.822L177.353 255.469L178.262 255.153L179.181 254.847L180.122 254.529L181.076 254.222L182.042 253.952L183.03 253.669L184.018 253.423L185.031 253.176L186.019 252.952L187.043 252.728L188.078 252.529L189.089 252.353L190.124 252.176L191.137 252.022L192.184 251.905L193.219 251.776L194.23 251.705L195.265 251.623L196.277 251.552L197.324 251.528H198.335L199.964 251.552L201.544 251.623L203.023 251.752L204.406 251.905L205.745 252.129L207.011 252.375L208.198 252.67L209.304 252.999L210.373 253.376L211.361 253.776L212.269 254.199L213.107 254.646L213.897 255.128L214.642 255.623L215.34 256.153L215.956 256.67L216.525 257.223L217.061 257.8L217.537 258.353L217.956 258.928L218.329 259.529L218.678 260.105L218.967 260.67L219.235 261.247L219.468 261.822L219.631 262.375L219.782 262.928L219.91 263.446L220.002 263.976L220.062 264.47L220.108 264.952V266.47L216.421 266.506L212.816 266.599L209.303 266.776L205.895 267.023L202.581 267.352L199.37 267.776L196.23 268.246L193.219 268.823L190.299 269.446L187.508 270.175L184.786 270.976L182.192 271.846L179.727 272.799L177.354 273.822L175.075 274.928L172.924 276.105L170.9 277.352L168.992 278.669L167.189 280.07L165.538 281.576L163.979 283.125L162.573 284.749L161.282 286.474L160.095 288.25L159.083 290.099L158.175 292.05L157.408 294.05L156.792 296.15L156.292 298.299L155.919 300.524L155.722 302.85L155.652 305.225L155.676 306.65L155.768 308.074L155.943 309.499L156.198 310.9L156.513 312.299L156.884 313.699L157.327 315.075L157.85 316.424L158.42 317.75L159.083 319.05L159.804 320.324L160.571 321.575L161.409 322.8L162.328 323.974L163.315 325.125L164.352 326.224L165.458 327.274L166.619 328.274L167.863 329.225L169.143 330.124L170.503 330.975L171.935 331.774L173.423 332.498L174.982 333.15L176.587 333.749L178.238 334.275L179.994 334.725L181.773 335.099L183.623 335.399L185.53 335.625L187.508 335.749L189.532 335.799L190.764 335.774L191.985 335.725L193.171 335.674L194.358 335.574L195.51 335.45L196.672 335.299L197.813 335.125L198.952 334.925L200.058 334.675L201.151 334.425L202.232 334.149L203.302 333.849L204.337 333.525L205.372 333.174L206.383 332.775L207.372 332.375L208.337 331.949L209.303 331.499L210.245 331.05L211.164 330.55L212.047 330.026L212.908 329.499L213.781 328.925L214.595 328.35L215.41 327.749L216.2 327.125L216.967 326.475L217.689 325.799L218.399 325.125L219.096 324.425L219.759 323.7L220.399 322.95H220.748L224.108 333.325H249.126V274.223L249.09 271.975L248.975 269.776L248.799 267.6L248.556 265.446L248.229 263.328L247.811 261.247L247.346 259.223L246.776 257.247L246.101 255.305L245.392 253.422L244.542 251.6L243.635 249.822L242.624 248.105L241.531 246.446L240.321 244.846L239.042 243.328L237.657 241.869L236.146 240.505L234.541 239.199L232.831 237.975L231.027 236.823L229.098 235.776L227.075 234.799L224.923 233.929L222.678 233.128L220.282 232.446L217.781 231.847L215.165 231.352L212.421 230.975L209.547 230.705L206.558 230.529L203.454 230.47ZM220.993 296.449V297.05L220.969 297.675L220.921 298.299L220.875 298.95L220.794 299.575L220.724 300.225L220.619 300.85L220.48 301.475L220.421 301.699L220.329 302.025L220.259 302.326L220.177 302.526L220.085 302.775L219.98 303.025L219.713 303.65L219.41 304.249L219.095 304.85L218.748 305.45L218.375 306.025L217.98 306.624L217.561 307.199L217.119 307.75L216.642 308.299L216.176 308.85L215.653 309.375L215.119 309.899L214.572 310.399L214.002 310.873L213.386 311.35L212.77 311.799L212.118 312.226L211.478 312.65L210.792 313.025L210.094 313.399L209.384 313.75L208.64 314.049L207.896 314.349L207.105 314.626L206.315 314.85L205.523 315.074L204.686 315.25L203.849 315.399L202.999 315.525L202.116 315.599L201.22 315.674H199.545L198.778 315.625L198.033 315.574L197.289 315.474L196.579 315.35L195.881 315.225L195.196 315.05L194.521 314.85L193.905 314.65L193.265 314.399L192.672 314.126L192.102 313.825L191.532 313.525L191.02 313.175L190.497 312.8L190.032 312.424L189.554 311.999L189.135 311.55L188.717 311.099L188.345 310.598L187.996 310.074L187.659 309.55L187.356 308.975L187.089 308.399L186.868 307.799L186.647 307.15L186.473 306.499L186.321 305.825L186.194 305.1L186.124 304.376L186.077 303.625L186.054 302.85L186.077 301.974L186.146 301.15L186.275 300.326L186.415 299.525L186.612 298.775L186.868 298.024L187.158 297.326L187.484 296.626L187.857 295.95L188.252 295.325L188.694 294.699L189.181 294.099L189.705 293.525L190.276 292.998L190.868 292.474L191.508 291.974L192.184 291.474L192.868 291.026L193.614 290.599L194.381 290.174L195.171 289.775L196.01 289.4L196.847 289.05L197.743 288.726L198.672 288.399L199.615 288.125L200.58 287.849L201.592 287.575L202.604 287.35L203.673 287.126L204.732 286.924L205.849 286.749L206.884 286.599L207.966 286.449L209.059 286.325L210.198 286.199L211.326 286.125L212.513 286.025L213.699 285.974L214.921 285.925L215.653 285.899L216.397 285.875L217.165 285.849H220.991L220.993 296.449ZM334.039 233.399V292.849L333.993 293.699L333.911 294.526L333.795 295.325L333.666 296.125L333.492 296.875L333.271 297.625L333.004 298.326L332.783 298.9L332.503 299.475L332.214 300.05L331.911 300.624L331.596 301.175L331.247 301.75L330.876 302.326L330.481 302.875L330.061 303.425L329.642 303.974L329.165 304.524L328.701 305.05L328.212 305.55L327.688 306.05L327.142 306.524L326.572 306.998L325.979 307.45L325.386 307.899L324.747 308.299L324.107 308.7L323.409 309.05L322.723 309.399L322.001 309.725L321.257 309.999L320.501 310.276L319.711 310.499L318.884 310.7L318.047 310.85L317.209 311L316.314 311.075L315.431 311.15H314.488L313.349 311.125L312.243 311.05L311.15 310.925L310.115 310.725L309.127 310.499L308.161 310.199L307.254 309.85L306.382 309.45L305.544 309.025L304.754 308.524L303.985 307.974L303.265 307.375L302.602 306.75L301.939 306.049L301.347 305.325L300.777 304.549L300.229 303.725L299.742 302.85L299.287 301.925L298.845 300.975L298.474 299.974L298.101 298.925L297.788 297.825L297.508 296.699L297.263 295.525L297.042 294.325L296.868 293.075L296.717 291.775L296.601 290.449L296.52 289.075L296.472 287.675L296.45 286.225V233.352H266.443V293.25L266.49 294.674L266.548 296.05L266.618 297.425L266.723 298.775L266.839 300.099L266.99 301.375L267.14 302.649L267.338 303.874L267.535 305.075L267.758 306.249L268.025 307.399L268.304 308.524L268.594 309.625L268.897 310.7L269.234 311.725L269.583 312.75L269.978 313.75L270.351 314.725L270.769 315.674L271.188 316.6L271.607 317.499L272.083 318.374L272.55 319.25L273.014 320.074L273.515 320.9L274.037 321.699L274.572 322.45L275.12 323.2L275.689 323.924L276.259 324.625L276.851 325.299L277.469 325.974L278.109 326.6L278.747 327.225L279.399 327.799L280.085 328.375L280.759 328.925L281.47 329.45L282.191 329.951L282.935 330.425L283.668 330.875L284.436 331.299L285.203 331.725L285.993 332.099L286.807 332.475L287.622 332.799L288.472 333.125L289.331 333.425L290.169 333.699L291.064 333.976L291.925 334.199L292.844 334.425L293.727 334.625L294.647 334.825L295.589 334.975L296.52 335.125L297.461 335.25L298.426 335.35L299.391 335.45L300.38 335.525L301.369 335.55L302.38 335.599H304.288L305.149 335.574L305.987 335.55L306.824 335.499L307.672 335.425L308.487 335.35L309.301 335.274L310.091 335.15L310.859 335.05L311.626 334.899L312.394 334.775L313.128 334.6L313.848 334.45L314.569 334.25L315.279 334.049L315.977 333.849L317.303 333.399L318.617 332.925L319.85 332.425L321.06 331.924L322.222 331.374L323.339 330.825L324.398 330.224L325.409 329.625L326.374 328.999L327.317 328.375L328.212 327.725L329.073 327.075L329.887 326.4L330.655 325.699L331.375 324.999L332.062 324.274L332.725 323.574L333.353 322.875L333.911 322.199L334.457 321.55L334.982 320.925L335.446 320.299L335.865 319.725L336.26 319.125L340.122 333.325H364.487V233.399H334.039ZM94.5314 199.976V233.353H80.5173V256.129H94.5314V296.774L94.5551 298.025L94.5801 299.25L94.6065 300.474L94.6539 301.65L94.7289 302.825L94.8277 303.974L94.9264 305.1L95.0502 306.226L95.1727 307.299L95.3215 308.374L95.4953 309.425L95.6928 310.449L95.8903 311.45L96.1128 312.451L96.3353 313.399L96.5829 314.349L96.8541 315.275L97.1504 316.174L97.4467 317.05L97.7693 317.899L98.1143 318.75L98.4606 319.55L98.8306 320.349L99.2256 321.1L99.6206 321.85L100.042 322.575L100.487 323.275L100.957 323.974L101.427 324.625L101.921 325.25L102.44 325.874L102.959 326.45L103.452 326.95L103.947 327.45L104.466 327.924L104.985 328.398L105.553 328.85L106.121 329.299L106.74 329.749L107.359 330.174L107.975 330.6L108.643 330.999L109.309 331.374L110.002 331.774L110.719 332.124L111.436 332.475L112.202 332.825L112.943 333.125L113.733 333.45L114.523 333.725L115.34 333.999L116.156 334.25L116.996 334.5L117.861 334.698L118.725 334.899L119.621 335.075L120.505 335.25L121.423 335.399L122.332 335.499L123.273 335.599L124.215 335.699L125.18 335.749L126.146 335.776L127.134 335.799L128.763 335.774L130.264 335.725L131.682 335.649L132.962 335.55L134.171 335.425L135.287 335.274L136.346 335.099L137.311 334.899L138.252 334.698L139.114 334.475L139.927 334.224L140.742 333.974L142.278 333.425L143.789 332.85V309.624L143.394 309.774L142.87 309.925L142.254 310.074L141.486 310.199L140.625 310.326L139.66 310.399L138.625 310.474L137.509 310.499L136.521 310.474L135.602 310.424L134.717 310.326L133.88 310.174L133.09 309.999L132.344 309.799L131.624 309.549L130.96 309.25L130.344 308.925L129.752 308.574L129.181 308.149L128.681 307.725L128.194 307.25L127.75 306.75L127.331 306.199L126.96 305.599L126.611 305L126.286 304.326L125.995 303.65L125.716 302.926L125.495 302.149L125.273 301.375L125.1 300.526L124.924 299.675L124.809 298.775L124.681 297.825L124.587 296.875L124.506 295.874L124.46 294.824L124.412 293.775L124.39 292.674V256.129H143.463V233.352H124.39V199.977L94.5314 199.976ZM322.699 199.952L304.159 226.904H325.606L351.74 199.952H322.699Z" fill="#FFF212"/>
</svg>
