<svg width="400" height="400" viewBox="0 0 400 400" fill="none" xmlns="http://www.w3.org/2000/svg">
<path d="M400 192.742C400 120.553 310.428 62 200 62C89.5722 62 0 120.82 0 192.742V200.495C0 276.962 78.3423 338.991 200 338.991C322.46 338.991 400 276.962 400 200.495V192.742Z" fill="#28316B"/>
<path d="M392.494 192.732C392.494 260.643 306.398 315.72 200.248 315.72C93.8312 315.72 7.73499 260.643 7.73499 192.732C7.73499 124.821 93.8312 69.7439 199.981 69.7439C306.398 69.4765 392.494 124.821 392.494 192.732Z" fill="#50B4E9"/>
<path d="M136.267 153.789C136.267 154.056 134.128 155.928 135.464 157.532C138.406 161.542 147.764 163.681 157.39 161.542C163.005 160.205 170.224 154.591 177.176 148.976C184.662 142.827 192.416 136.945 199.903 134.538C207.924 131.865 213.005 133.202 216.481 134.004C220.224 135.073 224.502 137.479 231.454 142.827C244.555 152.719 297.497 198.974 306.587 206.994C314.074 203.786 346.694 189.616 391.079 179.723C387.336 155.928 372.898 134.271 350.973 116.625C320.759 129.458 283.325 136.143 246.962 118.229C246.694 118.229 227.176 108.871 207.657 109.406C178.78 109.941 166.213 122.507 152.844 135.875L136.267 153.789Z" fill="white"/>
<path d="M304.527 211.921C303.993 211.386 242.495 157.646 228.324 146.951C220.303 140.802 215.757 139.465 210.944 138.663C208.538 138.396 205.062 138.93 202.656 139.465C196.239 141.337 187.682 146.951 180.196 152.833C172.442 158.983 164.955 164.865 158.271 166.469C149.447 168.341 139.019 166.202 133.939 162.726C132.067 161.389 130.463 159.785 129.928 158.448C128.057 154.17 131.533 150.962 132.067 150.427L149.18 131.979L155.062 126.097C149.714 126.899 144.634 128.236 139.554 129.572C133.404 131.444 127.522 133.048 121.372 133.048C118.966 133.048 105.597 130.909 102.923 130.107C87.6824 126.097 74.3134 121.819 53.9925 112.461C29.9284 130.375 13.6182 152.833 9.07275 177.698C12.5487 178.5 18.1637 180.372 20.5701 180.907C75.3829 193.206 92.2278 205.504 95.4364 208.178C98.9123 204.435 103.725 202.029 109.073 202.029C115.222 202.029 120.57 204.97 123.779 209.782C126.987 207.376 131.265 205.237 136.88 205.237C139.287 205.237 141.96 205.772 144.634 206.574C150.784 208.713 153.993 212.723 155.597 216.466C157.736 215.397 160.142 214.862 163.083 214.862C166.025 214.862 169.233 215.397 172.174 216.734C182.335 221.012 183.939 230.904 182.87 238.39H185.009C197.041 238.39 206.666 248.015 206.666 260.047C206.666 263.79 205.597 267.266 203.993 270.207C207.201 272.078 215.49 276.089 222.709 275.287C228.591 274.485 230.731 272.613 231.533 271.544C232.067 270.742 232.602 269.939 232.067 269.137L216.559 252.026C216.559 252.026 213.886 249.62 214.955 248.818C215.757 247.748 217.362 249.352 218.431 250.154C226.185 256.839 235.811 266.731 235.811 266.731C236.078 266.731 236.613 268.068 240.089 268.603C243.03 269.137 248.645 268.87 252.388 265.662C253.458 264.86 254.26 263.79 255.062 262.988L254.795 263.255C258.805 258.175 254.26 253.095 254.26 253.095L236.88 232.776C236.88 232.776 234.206 230.369 235.276 229.3C236.078 228.498 237.682 229.835 238.752 230.637C244.367 235.449 252.656 243.47 260.142 250.956C261.747 252.026 268.431 256.304 277.522 250.422C282.87 246.946 283.939 242.401 283.939 239.192C283.672 234.915 280.196 231.706 280.196 231.706L255.597 207.109C255.597 207.109 252.923 204.97 253.993 203.633C254.795 202.563 256.399 204.167 257.468 204.97C265.222 211.654 286.613 230.904 286.613 230.904C286.88 231.171 294.367 236.251 303.19 230.637C306.399 228.498 308.538 225.557 308.805 221.814C309.073 215.664 304.527 211.921 304.527 211.921Z" fill="white"/>
<path d="M185.309 243.396C181.565 243.396 177.287 245.535 176.752 245.268C176.485 245 177.02 243.664 177.287 242.594C177.555 241.792 182.635 226.552 170.335 221.472C160.977 217.462 155.362 222.007 153.223 224.146C152.688 224.681 152.421 224.681 152.421 223.879C152.153 221.205 151.084 213.719 143.063 211.312C131.565 207.837 124.079 215.858 122.207 218.799C121.405 212.114 115.79 207.035 109.105 207.035C101.619 207.035 95.7363 212.917 95.7363 220.403C95.7363 227.889 101.619 233.771 109.105 233.771C112.581 233.771 116.057 232.434 118.464 230.028V230.563C117.929 233.771 116.859 246.07 129.426 250.883C134.506 252.754 138.784 251.417 142.26 248.744C143.33 247.941 143.597 248.209 143.33 249.278C142.795 252.487 143.33 258.903 152.688 262.914C159.64 265.855 163.918 262.914 166.592 260.24C167.661 259.171 168.196 259.438 168.196 261.042C168.464 270.133 175.95 277.084 185.041 277.084C194.399 277.084 201.886 269.598 201.886 260.24C202.153 250.883 194.667 243.396 185.309 243.396Z" fill="white"/>
<path d="M185.309 275.885C176.752 275.885 170.068 269.201 169.801 260.913C169.801 260.111 169.801 258.239 168.196 258.239C167.662 258.239 166.859 258.507 166.325 259.309C164.186 261.18 161.779 262.784 158.303 262.784C156.699 262.784 155.095 262.517 153.223 261.715C144.4 257.972 144.132 251.823 144.667 249.416C144.667 248.881 144.667 248.079 144.4 247.545L143.865 247.01H143.33C142.795 247.01 142.26 247.277 141.726 247.545C139.052 249.416 136.646 250.218 134.239 250.218C132.902 250.218 131.565 249.951 129.961 249.416C118.196 244.871 119.266 233.642 119.801 230.433C119.801 229.631 119.801 229.364 119.266 228.829L118.196 228.294L117.394 229.096C114.988 231.235 112.047 232.572 108.838 232.572C102.154 232.572 96.5386 227.225 96.5386 220.273C96.5386 213.322 102.154 207.975 108.838 207.975C114.988 207.975 120.068 212.52 120.87 218.669L121.405 221.878L123.277 219.204C123.544 218.937 128.357 211.45 137.448 211.45C139.052 211.45 140.924 211.718 142.795 212.252C150.015 214.391 151.351 221.075 151.351 223.749C151.619 225.353 152.688 225.353 152.956 225.353C153.49 225.353 154.025 225.086 154.293 224.551C155.629 223.214 158.571 220.808 163.383 220.808C165.523 220.808 167.662 221.343 170.068 222.412C181.565 227.225 176.218 241.93 176.218 242.197C175.148 244.604 175.148 245.673 176.218 246.208L176.752 246.475H177.02C177.555 246.475 178.089 246.208 179.159 245.94C180.763 245.406 183.17 244.604 185.309 244.604C193.865 244.604 201.084 251.823 201.084 260.378C200.817 268.934 193.865 275.885 185.309 275.885ZM306.966 205.568C287.982 188.992 244.132 150.758 232.367 141.935C225.683 136.855 220.87 134.182 216.859 132.845C214.988 132.31 212.314 131.775 209.105 131.775C206.164 131.775 202.956 132.31 199.48 133.38C191.726 135.786 184.239 141.935 176.752 147.817L176.485 148.085C169.533 153.432 162.581 159.314 156.966 160.383C154.56 160.918 152.154 161.186 149.747 161.186C143.597 161.186 138.25 159.314 136.378 156.908C136.111 156.373 136.378 155.838 136.913 154.769V154.501L153.49 136.588C166.592 123.487 178.892 111.188 207.234 110.386H208.571C226.218 110.386 243.865 118.407 246.004 119.209C262.581 127.23 279.694 131.508 297.073 131.508C314.988 131.508 333.437 126.963 352.956 118.14C350.817 116.268 348.41 114.664 346.271 112.792C329.426 120.279 313.116 124.022 297.341 124.022C281.298 124.022 265.255 120.011 249.747 112.525C248.945 112.258 229.426 102.9 209.105 102.9H207.501C183.704 103.435 170.068 111.99 161.244 119.477C152.421 119.744 144.934 121.883 137.982 123.754C131.833 125.359 126.752 126.963 121.672 126.963C119.533 126.963 115.79 126.695 115.523 126.695C109.64 126.428 80.2284 119.209 56.699 110.386C54.2926 111.99 51.8862 113.862 49.7471 115.733C74.0787 125.626 104.025 133.38 113.383 134.182C116.057 134.449 118.731 134.716 121.672 134.716C127.822 134.716 133.972 132.845 140.121 131.241C143.597 130.171 147.608 129.102 151.619 128.3L148.41 131.508L131.565 149.956C130.228 151.293 127.287 155.036 129.159 159.314C129.961 161.186 131.565 162.79 133.704 164.394C137.715 167.068 144.934 168.939 151.619 168.939C154.293 168.939 156.699 168.672 158.838 168.137C166.057 166.533 173.277 160.651 181.298 154.234C187.715 149.154 196.539 143.005 203.49 141.133C205.362 140.598 207.769 140.331 209.64 140.331H211.244C215.79 140.866 220.068 142.47 228.089 148.352C241.993 158.779 303.758 212.787 304.293 213.322C304.293 213.322 308.303 216.798 308.036 222.412C307.769 225.621 306.164 228.294 303.223 230.166C300.549 231.77 297.875 232.572 295.202 232.572C291.191 232.572 288.25 230.701 287.982 230.433C287.715 230.166 266.592 210.916 258.838 204.499C257.501 203.429 256.432 202.627 255.095 202.627C254.56 202.627 253.758 202.895 253.49 203.429C252.154 205.034 253.758 206.905 255.362 208.509L279.961 233.374C279.961 233.374 282.902 236.315 283.437 240.058C283.704 244.069 281.565 247.545 277.555 250.218C274.613 252.09 271.672 253.159 268.731 253.159C264.988 253.159 262.314 251.555 261.779 251.02L258.303 247.545C251.886 241.128 245.202 234.711 240.389 230.433C238.517 229.096 237.18 228.027 235.843 228.027C235.309 228.027 234.774 228.294 234.239 228.562C233.704 229.096 233.17 230.166 234.774 232.037C235.309 232.84 236.111 233.374 236.111 233.374L254.025 253.694C254.293 253.961 257.769 258.239 254.293 262.25L253.758 263.052L252.154 264.656C249.212 267.062 244.934 267.33 243.33 267.33C242.528 267.33 241.726 267.33 240.924 267.062C239.052 266.795 237.982 266.26 237.448 265.458L237.18 265.191C236.111 264.121 227.02 255.031 219.533 248.614C218.464 247.812 217.394 246.743 216.057 246.743C215.523 246.743 214.988 247.01 214.453 247.545C212.849 249.149 215.255 251.555 216.057 252.625L231.298 269.469C231.298 269.736 231.031 270.003 230.763 270.538C230.228 271.34 228.357 273.212 222.742 273.746H220.603C214.72 273.746 208.838 271.073 205.629 269.201C206.966 266.26 207.769 262.784 207.769 259.576C207.769 247.01 197.608 236.583 184.774 236.583H183.972C184.506 230.701 183.704 220.006 172.474 215.193C169.266 213.857 166.057 213.054 162.849 213.054C160.442 213.054 158.036 213.589 155.897 214.391C153.49 209.846 149.747 206.638 144.667 204.766C142.26 204.499 139.587 203.964 136.646 203.964C132.1 203.964 127.555 205.301 123.811 207.975C120.068 203.429 114.453 200.756 108.838 200.756C103.758 200.756 98.945 202.895 95.2017 206.37C90.3888 202.627 71.4049 190.596 20.8701 179.099C18.4637 178.564 12.8487 176.96 9.37279 175.891C8.83803 178.564 8.30327 181.505 8.03589 184.179C8.03589 184.179 17.3942 186.318 19.2658 186.853C71.1375 198.349 88.2498 210.381 91.191 212.52C90.1214 214.926 89.5867 217.332 89.5867 220.006C89.5867 230.701 98.4102 239.524 109.105 239.524C110.175 239.524 111.512 239.524 112.581 239.256C114.186 247.01 119.266 253.159 127.287 256.1C129.694 256.902 131.833 257.437 134.239 257.437C135.843 257.437 137.18 257.17 138.785 256.902C140.121 260.646 143.597 265.191 150.817 268.132C153.49 269.201 155.897 269.736 158.571 269.736C160.71 269.736 162.581 269.469 164.453 268.667C167.929 277.222 176.218 282.837 185.576 282.837C191.726 282.837 197.608 280.431 201.886 275.885C205.629 278.024 213.383 281.767 221.137 281.767C222.207 281.767 223.009 281.767 224.079 281.5C231.833 280.431 235.576 277.49 237.18 275.083C237.448 274.549 237.715 274.281 237.982 273.746C239.854 274.281 241.726 274.816 244.132 274.816C248.41 274.816 252.421 273.479 256.699 270.271C260.71 267.33 263.651 263.052 264.186 259.576V259.309C265.523 259.576 266.859 259.843 268.464 259.843C273.009 259.843 277.287 258.507 281.298 255.833C289.319 250.486 290.656 243.802 290.656 239.256C291.993 239.524 293.597 239.791 294.934 239.791C298.945 239.791 303.223 238.454 306.966 236.048C312.047 232.84 314.988 228.027 315.255 222.412C315.523 218.669 314.72 214.659 312.581 211.45C325.95 205.568 356.432 194.606 392.528 186.318C392.261 183.644 391.993 180.703 391.458 178.03C347.608 187.922 314.988 201.825 306.966 205.568Z" fill="#28316B"/>
</svg>
