<svg width="400" height="400" viewBox="0 0 400 400" fill="none" xmlns="http://www.w3.org/2000/svg">
<path d="M200 25.0019C90.1743 24.527 0.792393 112.855 0 222.552C0 274.948 21.0777 325.285 58.4786 362.009C74.8019 377.997 101.109 377.997 117.433 362.009C133.597 346.18 133.756 320.378 117.908 304.232L117.433 303.757C72.4247 259.593 71.7908 187.253 116.006 142.298L117.433 140.873C163.233 95.9175 236.45 95.9175 282.25 140.873C327.258 185.037 327.892 257.377 283.677 302.333L282.25 303.757C266.086 319.587 265.927 345.388 281.775 361.534L282.25 362.009C298.574 377.997 324.881 377.997 341.204 362.009C378.764 325.285 400 275.106 400 222.552C399.049 112.855 309.667 24.527 200 25.0019Z" fill="url(#paint0_linear_1_170)"/>
<defs>
<linearGradient id="paint0_linear_1_170" x1="3.20158" y1="199.553" x2="1584.65" y2="199.553" gradientUnits="userSpaceOnUse">
<stop stop-color="#00A5F0"/>
<stop offset="1" stop-color="#00D7D7"/>
</linearGradient>
</defs>
</svg>
