<svg width="400" height="400" viewBox="0 0 400 400" fill="none" xmlns="http://www.w3.org/2000/svg">
<path d="M72.2038 111.07C84.8459 97.7712 101.569 90 121.332 90C159.739 90 185.183 118.04 190.064 160.101C191.664 173.801 191.664 193.028 191.584 215.3V305.83H138.775V244.062C138.775 244.062 138.695 191.186 138.375 181.251C136.935 138.229 111.491 111.15 72.2038 111.07C60.2817 123.729 53.9607 139.031 53.0005 162.504C52.8405 165.789 52.9205 177.406 52.9205 192.628C52.9205 200.559 53.0005 209.452 53.0005 218.745V305.911H0.191469V210.814C0.191469 207.529 0.111456 204.244 0.111456 200.96C0.0314418 194.31 -0.128586 187.66 0.191469 181.011C0.751565 169.955 2.67189 159.059 7.87278 148.965C19.6348 125.892 43.7989 110.99 69.4833 110.99C70.3635 110.99 71.2436 111.07 72.2038 111.07Z" fill="#820AD1"/>
<path d="M399.78 220.027C400.1 213.377 400.02 206.728 399.86 200.078C399.78 196.794 399.78 193.509 399.78 190.224V95.1274H346.971V182.293C346.971 191.586 346.971 200.479 347.051 208.41C347.131 223.712 347.131 235.329 346.971 238.534C346.011 262.007 339.69 277.309 327.848 289.888C288.561 289.888 263.037 262.809 261.676 219.787C261.356 209.933 261.196 185.337 261.196 156.976V95.0473L208.387 95.1274V185.658C208.387 207.93 208.387 227.237 209.907 240.857C214.788 282.917 240.233 310.958 278.639 310.958C298.323 310.958 315.125 303.187 327.768 289.888C328.648 289.888 329.528 289.968 330.488 289.968C356.253 289.968 380.337 275.066 392.099 251.993C397.3 241.898 399.22 231.083 399.78 220.027Z" fill="#820AD1"/>
</svg>
