<svg width="400" height="400" viewBox="0 0 400 400" fill="none" xmlns="http://www.w3.org/2000/svg">
<path d="M199.945 54.207C209.166 54.207 216.711 61.7516 216.711 70.9727C216.711 80.1938 209.166 87.7383 199.945 87.7383C190.724 87.7383 183.18 80.1938 183.18 70.9727C183.18 61.7516 190.724 54.207 199.945 54.207Z" fill="#0EA02B"/>
<path d="M229.284 255.392H170.604V284.732H229.284V255.392Z" fill="#26D416"/>
<path d="M229.284 284.732H170.604V339.22H229.284V284.732Z" fill="#2EC224"/>
<path d="M145.457 171.567V146.419H254.434V171.567H267.009V205.098H132.883V171.567H145.457Z" fill="#0EA02B"/>
<path d="M254.434 314.076V339.224H229.285V284.736V255.395H170.605V284.736V339.224H145.457V314.076H132.883V205.098H267.009V314.076H254.434Z" fill="#11D411"/>
<path d="M346.645 339.224V364.373H53.2451V339.224H61.6279H145.457H170.605H229.285H254.433H338.262H346.645Z" fill="#14A314"/>
<path d="M367.602 372.755V393.712H32.2881V372.755C32.2881 368.145 36.0607 364.373 40.6709 364.373H53.2451H346.645H359.219C363.83 364.373 367.602 368.145 367.602 372.755Z" fill="#26D416"/>
<path d="M338.261 314.073H254.432V339.221H338.261V314.073Z" fill="#0EA02B"/>
<path d="M145.457 314.076V339.224H61.6279V314.076H74.2021H132.883H145.457Z" fill="#0EA02B"/>
<path d="M267.009 171.567H254.434V146.419H338.262V171.567H325.688H267.009Z" fill="#0EA02B"/>
<path d="M61.6279 146.419H145.457V171.567H132.883H74.2021H61.6279V146.419Z" fill="#0EA02B"/>
<path d="M325.688 171.567V314.076H267.008V205.098V171.567H325.688Z" fill="#5BBF4A"/>
<path d="M132.883 171.567V205.098V314.076H74.2021V171.567H132.883Z" fill="#5BBF4A"/>
<path d="M367.602 125.461V146.418H338.262H254.433H145.457H61.6279H32.2881V125.461C32.2881 120.85 36.0607 117.078 40.6709 117.078H65.8193H334.071H359.219C363.83 117.078 367.602 120.851 367.602 125.461Z" fill="#5BBF4A"/>
<path d="M334.071 117.078H65.8193L199.945 8.10156L334.071 117.078ZM216.711 70.9727C216.711 61.7516 209.166 54.207 199.945 54.207C190.724 54.207 183.179 61.7516 183.179 70.9727C183.179 80.1937 190.724 87.7383 199.945 87.7383C209.166 87.7383 216.711 80.1937 216.711 70.9727Z" fill="#0EA02B"/>
<path d="M199.945 47.9195C187.233 47.9195 176.892 58.2609 176.892 70.9727C176.892 83.6844 187.233 94.0258 199.945 94.0258C212.657 94.0258 222.998 83.6844 222.998 70.9727C222.998 58.2609 212.656 47.9195 199.945 47.9195ZM199.945 81.4516C194.167 81.4516 189.466 76.7516 189.466 70.9727C189.466 65.1938 194.167 60.4937 199.945 60.4937C205.723 60.4937 210.424 65.1938 210.424 70.9727C210.424 76.7516 205.723 81.4516 199.945 81.4516Z" fill="black"/>
<path d="M344.55 177.854V152.705H373.89V125.461C373.89 117.373 367.309 110.791 359.22 110.791H336.303L199.945 0L63.5875 110.791H40.6711C32.5828 110.791 26.0008 117.373 26.0008 125.462V152.706H55.3406V177.855H67.9148V307.789H55.3406V332.938H46.9578V358.086H40.6703C32.582 358.086 26 364.667 26 372.756V400H373.889V372.755C373.889 364.667 367.308 358.085 359.219 358.085H352.931V332.937H344.548V307.788H331.974V177.854H344.55ZM331.976 165.28H260.721V152.705H331.976V165.28ZM302.635 288.927V177.854H319.401V307.788H273.295V177.854H290.061V288.927H302.635V288.927ZM260.721 307.788H248.147V332.937H235.573V249.109H164.318V332.938H151.744V307.789H139.17V211.386H260.721V307.788ZM222.998 278.448H176.893V261.683H222.998V278.448ZM176.892 291.023H222.998V332.937H176.892V291.023ZM260.721 198.811H139.17V177.854H151.744V152.705H248.147V177.854H260.721V198.811ZM199.945 16.2016L316.363 110.791H83.5273L199.945 16.2016ZM38.575 140.131V125.461C38.575 124.325 39.5352 123.365 40.6711 123.365H359.22C360.355 123.365 361.316 124.325 361.316 125.461V140.131H38.575ZM67.9156 152.705H139.17V165.28H67.9156V152.705ZM109.83 288.927V177.854H126.595V307.788H80.4898V177.854H97.2555V288.927H109.83V288.927ZM67.9156 320.362H139.17V332.937H67.9156V320.362ZM359.22 370.66C360.355 370.66 361.316 371.62 361.316 372.756V387.427H38.575V372.756C38.575 371.62 39.5352 370.66 40.6711 370.66H359.22ZM340.359 345.512V358.086H59.532V345.512H340.359ZM331.976 332.938H260.721V320.363H331.976V332.938Z" fill="black"/>
<path d="M212.518 169.468H187.37V182.042H212.518V169.468Z" fill="black"/>
</svg>
