<svg width="400" height="400" viewBox="0 0 400 400" fill="none" xmlns="http://www.w3.org/2000/svg">
<g clip-path="url(#clip0_1_211)">
<path fill-rule="evenodd" clip-rule="evenodd" d="M400.006 317.974C400.006 363.092 363.093 400.005 317.975 400.005H82.036C36.9176 400.005 0.00488281 363.092 0.00488281 317.974V82.0347C0.00488281 36.9163 36.9176 0.00360107 82.036 0.00360107H317.975C363.093 0.00360107 400.006 36.9163 400.006 82.0347V317.974Z" fill="url(#paint0_linear_1_211)"/>
<path d="M182.183 133.595C189.692 143.699 194.286 156.095 194.815 169.533V171.851C194.815 184.945 190.935 197.157 184.199 207.303L130.539 289.174L129.094 291.383C128.506 292.273 127.515 292.811 126.449 292.811H82.7329C80.6248 292.811 79.365 290.476 80.5156 288.712L116.11 234.406C87.621 227.838 66.3721 202.331 66.3721 171.843L66.4309 169.525C66.9012 156.12 71.4785 143.757 78.9535 133.662C90.653 117.856 109.424 107.609 130.598 107.609C151.729 107.626 170.475 117.839 182.183 133.595ZM149.377 183.643L151.166 180.905C153.09 177.42 154.098 173.506 154.081 169.525C154.056 156.566 143.549 146.076 130.589 146.076C117.63 146.076 107.123 156.574 107.098 169.567C107.098 182.543 117.613 193.067 130.589 193.067C138.283 193.075 145.086 189.363 149.377 183.643ZM320.763 133.595C328.272 143.699 332.866 156.095 333.404 169.533V171.851C333.404 184.945 329.523 197.157 322.787 207.303L269.128 289.174L267.683 291.383C267.095 292.273 266.104 292.811 265.037 292.811H221.322C219.213 292.811 217.954 290.476 219.104 288.712L254.698 234.406C226.21 227.838 204.961 202.331 204.961 171.843L205.019 169.525C205.498 156.12 210.067 143.757 217.542 133.662C229.242 117.856 248.013 107.609 269.186 107.609C290.318 107.626 309.064 117.839 320.763 133.595ZM287.958 183.643L289.747 180.905C291.67 177.42 292.678 173.506 292.661 169.525C292.636 156.566 282.129 146.076 269.17 146.076C256.21 146.076 245.695 156.574 245.67 169.567C245.67 182.543 256.193 193.067 269.17 193.067C276.871 193.075 283.674 189.363 287.958 183.643Z" fill="black"/>
</g>
<defs>
<linearGradient id="paint0_linear_1_211" x1="133.366" y1="133.348" x2="189.362" y2="189.344" gradientUnits="userSpaceOnUse">
<stop stop-color="#FFDD00"/>
<stop offset="1" stop-color="#FF8200"/>
</linearGradient>
<clipPath id="clip0_1_211">
<rect width="400" height="400" fill="white"/>
</clipPath>
</defs>
</svg>
