<svg width="400" height="400" viewBox="0 0 400 400" fill="none" xmlns="http://www.w3.org/2000/svg">
<path d="M186.063 316.1H228.416V192.567H186.063V316.1ZM242.986 108.549H214.48V137.099H242.986V108.549ZM83.1674 122.416H42.3529V158.217H80.2715C104.344 158.217 118.19 169.908 118.19 191.841C118.19 213.775 104.344 226.192 80.2715 226.192H42.3529V158.942H0V316.1H42.3529V261.992H82.5339C131.403 261.992 159.909 235.708 159.909 190.391C159.819 147.975 132.127 122.416 83.1674 122.416ZM271.493 80H186.063V165.558H271.493V80ZM257.647 150.875H200.724V93.8669H257.647V150.875ZM336.471 283.925C316.018 283.925 301.448 267.883 301.448 243.684C301.448 220.3 316.018 204.258 336.471 204.258C351.041 204.258 361.991 210.149 370.045 220.3L398.552 199.817C385.43 180.059 362.805 168.367 334.299 168.367C289.774 167.642 259.095 198.367 259.095 243.684C259.095 289 289.774 319 334.299 319C364.977 319 387.602 306.583 400 286.1L370.769 266.342C363.439 278.034 351.765 283.925 336.471 283.925Z" fill="#21C25E"/>
</svg>
