<svg width="400" height="400" viewBox="0 0 400 400" fill="none" xmlns="http://www.w3.org/2000/svg">
<path d="M287.718 184.448C286.848 170.788 283.192 157.041 275.882 145.208L213.743 36.45C209.131 28.2713 205.475 19.1357 203.648 10L200.95 14.5243C185.459 40.9743 185.459 74.8198 200.95 101.27L251.166 188.015C266.657 214.465 266.657 248.311 251.166 274.761L248.468 279.285C246.64 270.149 242.985 261.014 238.459 252.835L192.769 173.398L163.527 122.238C159.002 114.06 155.347 104.924 153.519 95.7883L150.821 100.313C135.33 126.763 135.33 159.651 150.821 187.058L201.037 273.803C216.528 300.253 216.528 334.099 201.037 360.549L198.339 365.073C196.511 355.938 192.856 346.802 188.331 338.623L125.322 229.952C117.141 215.335 113.486 198.891 113.486 182.447C46.5605 199.935 0 237.348 0 280.329C0 340.624 89.5528 389 199.993 389C310.432 389 399.985 340.624 399.985 280.329C400.943 239.175 355.339 201.762 287.718 184.448Z" fill="#EA1D25"/>
</svg>
