<svg width="400" height="400" viewBox="0 0 400 400" fill="none" xmlns="http://www.w3.org/2000/svg">
<rect y="12.16" width="399.68" height="375.68" rx="50" fill="white"/>
<path d="M252.544 324.557V231.167L206.169 277.861L252.544 324.557ZM365.429 277.856C365.429 261.21 353.557 253.171 336.57 253.171H291.213V302.563H336.57C353.557 302.54 365.429 294.503 365.429 277.856ZM351.497 12.16H48.4586C16.5214 12.16 0 29.3314 0 62.6243V337.457C0 370.727 16.5 387.923 48.4571 387.923H252.544V377.19C252.544 358.397 258.746 347.666 273.163 341.774V340.7H215.957C212.879 340.7 211.837 340.153 209.779 338.007L179.901 305.81L148.984 338.554C147.434 340.177 146.393 340.7 143.293 340.7H97.4471C94.8571 340.7 94.8571 339.079 96.4071 337.481L155.163 277.906L95.3657 217.783C93.8157 216.161 94.3471 214.566 96.9371 214.566H143.336C145.906 214.566 146.947 215.09 148.474 216.711L180.943 250.527L211.35 216.711C212.923 215.09 213.941 214.566 216.001 214.566H337.124C364.941 214.566 389.701 224.223 398.959 253.223H400V62.6714C399.956 29.33 383.456 12.16 351.497 12.16ZM337.589 340.649H292.763C291.723 340.649 291.213 341.199 291.213 342.27V387.893H351.497C383.434 387.893 399.956 370.723 399.956 337.429V302.539H398.914C389.636 331.537 365.937 340.649 337.589 340.649Z" fill="black"/>
</svg>
